<?xml version="1.0" encoding="UTF-8" standalone="no"?>
<svg width="556px" height="518px" viewBox="0 0 556 518" version="1.1" xmlns="http://www.w3.org/2000/svg" xmlns:xlink="http://www.w3.org/1999/xlink">
    <!-- Generator: Sketch 43.2 (39069) - http://www.bohemiancoding.com/sketch -->
    <title>Group</title>
    <desc>Created with Sketch.</desc>
    <defs></defs>
    <g id="Page-1" stroke="none" stroke-width="1" fill="none" fill-rule="evenodd">
        <g id="Desktop-HD" transform="translate(-442.000000, -524.000000)">
            <g id="LHV-brand-elements-work_EST-copy" transform="translate(0.000000, -1.000000)">
                <g id="Group-43">
                    <g id="Group" transform="translate(442.000000, 525.000000)">
                        <polygon id="Stroke-27" stroke="#F9F7F0" points="0.802 259 554.802 259 554.802 0.956 0.802 0.956"></polygon>
                        <polygon id="Fill-28" fill="#1A1918" points="283.8694 100.4468 280.2094 124.1608 260.2584 124.1608 263.9114 100.4588 238.3194 100.4588 238.3194 150.8468 211.4564 150.8468 219.0684 100.4588 192.9604 100.4518 192.9604 159.5098 254.9634 159.5098 258.9484 132.7518 278.9574 132.7518 274.9234 159.5098 295.9164 159.5098 304.4284 109.1408 323.1424 159.5098 341.6724 159.5098 368.5974 100.4518 354.1364 100.4498 340.6814 131.4868 339.1534 135.2608 337.6794 131.4748 325.9454 100.4588"></polygon>
                        <polygon id="Fill-32" fill="#1A1918" points="0.802 517.044 554.802 517.044 554.802 259 0.802 259"></polygon>
                        <polygon id="Fill-33" fill="#FFFFFF" points="283.8694 358.4907 280.2094 382.2047 260.2584 382.2047 263.9114 358.5027 238.3194 358.5027 238.3194 408.8907 211.4564 408.8907 219.0684 358.5027 192.9604 358.4957 192.9604 417.5537 254.9634 417.5537 258.9484 390.7957 278.9574 390.7957 274.9234 417.5537 295.9164 417.5537 304.4284 367.1847 323.1424 417.5537 341.6724 417.5537 368.5974 358.4957 354.1364 358.4937 340.6814 389.5307 339.1534 393.3047 337.6794 389.5187 325.9454 358.5027"></polygon>
                    </g>
                </g>
            </g>
        </g>
    </g>
</svg>