<?xml version="1.0" encoding="utf-8"?>
<!-- Generator: Adobe Illustrator 21.1.0, SVG Export Plug-In . SVG Version: 6.00 Build 0)  -->
<svg version="1.1" id="Layer_1" xmlns="http://www.w3.org/2000/svg" xmlns:xlink="http://www.w3.org/1999/xlink" x="0px" y="0px"
	 viewBox="0 0 239.1 128" style="enable-background:new 0 0 239.1 128;" xml:space="preserve">
<style type="text/css">
	.st0{fill:#B35F49;}
	.st1{fill:#F79A10;}
	.st2{fill-rule:evenodd;clip-rule:evenodd;}
</style>
<path class="st0" d="M74.4,42.2c0-1.9-1.4-3.5-3.3-3.6c-1-0.1-1.9,0.3-2.6,0.9c-0.7,0.7-1.1,1.6-1.1,2.5l0,5.3
	c0,0.3-0.2,0.4-0.3,0.5c-0.1,0-0.3,0.1-0.6-0.1l-0.5-0.5C66,47.1,66,46.9,66,46.8l0-7.1c0-1.9-1.4-3.5-3.3-3.6
	c-1-0.1-1.9,0.3-2.6,0.9c-0.7,0.7-1.1,1.6-1.1,2.5v0.6l-1.4-1.4c-1.3-1.3-3.4-1.4-4.7-0.3c-0.8,0.6-1.2,1.5-1.3,2.5
	c0,1,0.3,1.9,1,2.6l1.5,1.5l-0.4,0c-1.9,0-3.5,1.4-3.6,3.3c-0.1,1,0.3,1.9,0.9,2.6c0.7,0.7,1.6,1.1,2.5,1.1l7.3,0
	c0.1,0,0.3,0.1,0.4,0.1l0.5,0.5c0.2,0.2,0.1,0.5,0.1,0.6c0,0.1-0.2,0.3-0.5,0.3l-5.1,0c-1.9,0-3.5,1.4-3.6,3.3
	c-0.1,1,0.3,1.9,0.9,2.6c0.7,0.7,1.6,1.1,2.5,1.1l13.2,0c0.1,0,0.3,0.1,0.4,0.1c0.2,0.2,0.1,0.5,0.1,0.6c0,0.1-0.2,0.3-0.5,0.3
	l-0.2,0c-1.9,0-3.5,1.4-3.6,3.3c-0.1,1,0.3,1.9,0.9,2.6c0.7,0.7,1.6,1.1,2.5,1.1l9.9,0c0.9,0,1.8-0.4,2.4-1l0,0l0,0
	c0.7-0.7,1-1.5,1-2.4l0-9.8c0-1.9-1.4-3.5-3.3-3.6c-1-0.1-1.9,0.3-2.6,0.9c-0.7,0.7-1.1,1.6-1.1,2.5v0.3c0,0.3-0.2,0.4-0.3,0.5
	c-0.1,0-0.3,0.1-0.6-0.1c-0.1-0.1-0.1-0.2-0.1-0.4L74.4,42.2L74.4,42.2z M75.6,56.9c0.7-0.3,1.1-0.9,1.1-1.7v-0.3
	c0-0.6,0.2-1.1,0.7-1.6c0.4-0.4,1-0.6,1.6-0.6c1.1,0.1,2,1.1,2,2.3l0,9.8c0,0.3-0.1,0.7-0.2,1l-1.3-1.3l0-9.7c0-0.4-0.3-0.7-0.7-0.7
	c-0.4,0-0.7,0.3-0.7,0.7l0,8.3l-6.6-6.6l0-14.6c0-0.4-0.3-0.7-0.7-0.7c-0.4,0-0.7,0.3-0.7,0.7l0,13.3l-7.1-7.1l0-8.7
	c0-0.4-0.3-0.7-0.7-0.7c-0.4,0-0.7,0.3-0.7,0.7l0,7.3l-6.3-6.3c-0.3-0.3-0.7-0.3-0.9,0c-0.3,0.3-0.3,0.7,0,0.9l6.3,6.3l-7.3,0
	c-0.4,0-0.7,0.3-0.7,0.7c0,0.4,0.3,0.7,0.7,0.7l8.7,0l7.1,7.1l-13.3,0c-0.4,0-0.7,0.3-0.7,0.7c0,0.4,0.3,0.7,0.7,0.7l14.6,0l6.6,6.6
	l-8.3,0c-0.4,0-0.7,0.3-0.7,0.7c0,0.4,0.3,0.7,0.7,0.7l9.7,0l1.3,1.3c-0.3,0.2-0.6,0.2-1,0.2L69,67c-0.6,0-1.1-0.2-1.6-0.7
	c-0.4-0.4-0.6-1-0.6-1.6c0-0.5,0.3-1,0.6-1.3c0.4-0.4,1-0.7,1.7-0.7h0.2c0.8,0,1.4-0.4,1.7-1.1c0.3-0.7,0.1-1.5-0.4-2
	c-0.3-0.3-0.8-0.5-1.3-0.5l-13.2,0c-0.6,0-1.1-0.2-1.6-0.7c-0.4-0.4-0.6-1-0.6-1.6c0.1-1.1,1.1-2,2.3-2l5.1,0c0.8,0,1.4-0.4,1.7-1.1
	c0.3-0.7,0.1-1.5-0.4-2l-0.5-0.5c-0.3-0.3-0.8-0.5-1.3-0.5l-7.3,0c-0.6,0-1.1-0.2-1.6-0.7c-0.4-0.4-0.6-1-0.6-1.6
	c0.1-1.1,1.1-2,2.3-2l2,0c0.3,0,0.5-0.2,0.6-0.4c0.1-0.2,0-0.5-0.1-0.7l-2.7-2.7c-0.4-0.4-0.7-1-0.6-1.6c0-0.6,0.3-1.2,0.8-1.6
	c0.8-0.7,2.1-0.6,3,0.2l2.6,2.6c0.2,0.2,0.5,0.2,0.7,0.1c0.2-0.1,0.4-0.3,0.4-0.6l0-2.2c0-0.6,0.2-1.1,0.7-1.6
	c0.4-0.4,1-0.6,1.6-0.6c1.1,0.1,2,1.1,2,2.3l0,7.1c0,0.5,0.2,0.9,0.5,1.3l0.5,0.5c0.5,0.5,1.3,0.7,2,0.4c0.7-0.3,1.1-0.9,1.1-1.7
	l0-5.3c0-0.6,0.2-1.1,0.7-1.6c0.4-0.4,1-0.6,1.6-0.6c1.1,0.1,2,1.1,2,2.3l0,13.1c0,0.5,0.2,0.9,0.5,1.3
	C74.2,57.1,74.9,57.2,75.6,56.9L75.6,56.9z"/>
<path class="st1" d="M64,72.5c-1.4-1.4-3.5-1.5-4.9-0.2c-0.7,0.6-1.1,1.5-1.1,2.5c0,1,0.3,1.9,1,2.5l3.7,3.7
	c0.2,0.2,0.1,0.5,0.1,0.6c0,0.1-0.2,0.3-0.5,0.3h-0.7c-0.1,0-0.3-0.1-0.4-0.1l-5-5c-1.4-1.4-3.5-1.5-4.9-0.2
	c-0.7,0.6-1.1,1.5-1.1,2.5c0,1,0.3,1.9,1,2.5l0.4,0.4l-2,0c-1.8,0-3.4,1.4-3.6,3.1c-0.1,1,0.2,1.9,0.9,2.7c0.7,0.7,1.6,1.1,2.6,1.1
	l2.2,0l-0.3,0.3c-1.4,1.4-1.5,3.5-0.2,4.9c0.6,0.7,1.5,1.1,2.5,1.1c1,0,1.9-0.3,2.5-1l5.2-5.2c0.1-0.1,0.2-0.1,0.4-0.1h0.7
	c0.3,0,0.4,0.2,0.5,0.3c0,0.1,0.1,0.3-0.1,0.6l-3.6,3.6c-1.4,1.4-1.5,3.5-0.2,4.9c0.6,0.7,1.5,1.1,2.5,1.1c1,0,1.9-0.3,2.5-1
	l9.4-9.4c0.1-0.1,0.2-0.1,0.4-0.1c0.3,0,0.4,0.2,0.5,0.3s0.1,0.3-0.1,0.6l-0.1,0.1c-1.4,1.4-1.5,3.5-0.2,4.9
	c0.6,0.7,1.5,1.1,2.5,1.1c1,0,1.9-0.3,2.5-1l7-7c0.7-0.7,1-1.5,1-2.4v0v0c0-0.9-0.4-1.8-1-2.4L78.7,76c-1.4-1.4-3.5-1.5-4.9-0.2
	c-0.7,0.6-1.1,1.5-1.1,2.5c0,1,0.3,1.9,1,2.5L74,81c0.2,0.2,0.1,0.5,0.1,0.6s-0.2,0.3-0.5,0.3c-0.1,0-0.3-0.1-0.4-0.1L64,72.5
	L64,72.5z M75.3,82.1c0.3-0.7,0.1-1.5-0.4-2l-0.2-0.2c-0.4-0.4-0.6-1-0.6-1.6c0-0.6,0.3-1.1,0.7-1.5c0.8-0.8,2.2-0.7,3.1,0.2
	l6.9,6.9c0.2,0.2,0.4,0.5,0.5,0.9l-1.8,0l-6.8-6.8c-0.3-0.3-0.7-0.3-0.9,0c-0.3,0.3-0.3,0.7,0,0.9l5.9,5.9l-9.4,0L61.9,74.4
	c-0.3-0.3-0.7-0.3-0.9,0c-0.3,0.3-0.3,0.7,0,0.9l9.4,9.4l-10.1,0l-6.1-6.1c-0.3-0.3-0.7-0.3-0.9,0c-0.3,0.3-0.3,0.7,0,0.9l5.2,5.2
	l-8.9,0c-0.4,0-0.7,0.3-0.7,0.7c0,0.4,0.3,0.7,0.7,0.7l8.9,0l-5.2,5.2c-0.3,0.3-0.3,0.7,0,0.9c0.3,0.3,0.7,0.3,0.9,0l6.1-6.1l10.1,0
	L61,95.4c-0.3,0.3-0.3,0.7,0,0.9c0.3,0.3,0.7,0.3,0.9,0L72.2,86l9.4,0l-5.9,5.9c-0.3,0.3-0.3,0.7,0,0.9c0.3,0.3,0.7,0.3,0.9,0
	l6.8-6.8l1.8,0c-0.1,0.3-0.3,0.6-0.5,0.9l-7,7c-0.4,0.4-1,0.6-1.6,0.6c-0.6,0-1.1-0.3-1.5-0.7c-0.3-0.4-0.5-0.9-0.5-1.4
	c0-0.6,0.2-1.2,0.7-1.7l0.1-0.1c0.5-0.5,0.7-1.3,0.4-2c-0.3-0.7-0.9-1.1-1.7-1.1c-0.5,0-0.9,0.2-1.3,0.5L63,97.4
	c-0.4,0.4-1,0.6-1.6,0.6c-0.6,0-1.1-0.3-1.5-0.7c-0.8-0.8-0.7-2.2,0.2-3.1l3.6-3.6c0.5-0.5,0.7-1.3,0.4-2c-0.3-0.7-0.9-1.1-1.7-1.1
	h-0.7c-0.5,0-0.9,0.2-1.3,0.5l-5.2,5.2c-0.4,0.4-1,0.6-1.6,0.6c-0.6,0-1.1-0.3-1.5-0.7c-0.8-0.8-0.7-2.2,0.2-3.1l1.4-1.4
	c0.2-0.2,0.2-0.5,0.1-0.7c-0.1-0.2-0.3-0.4-0.6-0.4l-3.7,0c-0.6,0-1.2-0.3-1.6-0.7c-0.4-0.5-0.6-1-0.5-1.7c0.1-1.1,1.1-1.9,2.3-1.9
	l3.6,0c0.3,0,0.5-0.2,0.6-0.4c0.1-0.2,0-0.5-0.1-0.7l-1.5-1.5c-0.4-0.4-0.6-1-0.6-1.6c0-0.6,0.3-1.1,0.7-1.5
	c0.8-0.8,2.2-0.7,3.1,0.2l5,5c0.3,0.3,0.8,0.5,1.3,0.5l0.7,0c0.8,0,1.4-0.4,1.7-1.1c0.3-0.7,0.1-1.5-0.4-2l-3.7-3.7
	c-0.4-0.4-0.6-1-0.6-1.6c0-0.6,0.3-1.1,0.7-1.5c0.8-0.8,2.2-0.7,3.1,0.2l9.3,9.3c0.3,0.3,0.8,0.5,1.3,0.5
	C74.4,83.2,75,82.8,75.3,82.1L75.3,82.1z"/>
<path class="st1" d="M138.9,96.1c1.4,1.4,3.5,1.5,4.9,0.2c0.7-0.6,1.1-1.5,1.1-2.5c0-1-0.3-1.9-1-2.5l-3.7-3.7
	c-0.2-0.2-0.1-0.5-0.1-0.6c0-0.1,0.2-0.3,0.5-0.3h0.7c0.1,0,0.3,0.1,0.4,0.1l5,5c1.4,1.4,3.5,1.5,4.9,0.2c0.7-0.6,1.1-1.5,1.1-2.5
	c0-1-0.3-1.9-1-2.5l-0.4-0.4l2,0c1.8,0,3.4-1.4,3.6-3.1c0.1-1-0.2-1.9-0.9-2.7c-0.7-0.7-1.6-1.1-2.6-1.1l-2.2,0l0.3-0.3
	c1.4-1.4,1.5-3.5,0.2-4.9c-0.6-0.7-1.5-1.1-2.5-1.1c-1,0-1.9,0.3-2.5,1l-5.2,5.2c-0.1,0.1-0.2,0.1-0.4,0.1h-0.7
	c-0.3,0-0.4-0.2-0.5-0.3c0-0.1-0.1-0.3,0.1-0.6l3.6-3.6c1.4-1.4,1.5-3.5,0.2-4.9c-0.6-0.7-1.5-1.1-2.5-1.1c-1,0-1.9,0.3-2.5,1
	l-9.4,9.4c-0.1,0.1-0.2,0.1-0.4,0.1c-0.3,0-0.4-0.2-0.5-0.3s-0.1-0.3,0.1-0.6l0.1-0.1c1.4-1.4,1.5-3.5,0.2-4.9
	c-0.6-0.7-1.5-1.1-2.5-1.1c-1,0-1.9,0.3-2.5,1l-7,7c-0.7,0.7-1,1.5-1,2.4v0v0c0,0.9,0.4,1.8,1,2.4l6.9,6.9c1.4,1.4,3.5,1.5,4.9,0.2
	c0.7-0.6,1.1-1.5,1.1-2.5c0-1-0.3-1.9-1-2.5l-0.2-0.2c-0.2-0.2-0.1-0.5-0.1-0.6c0-0.1,0.2-0.3,0.5-0.3c0.1,0,0.3,0.1,0.4,0.1
	L138.9,96.1L138.9,96.1z M127.6,86.5c-0.3,0.7-0.1,1.5,0.4,2l0.2,0.2c0.4,0.4,0.6,1,0.6,1.6c0,0.6-0.3,1.1-0.7,1.5
	c-0.8,0.8-2.2,0.7-3.1-0.2l-6.9-6.9c-0.2-0.2-0.4-0.5-0.5-0.9l1.8,0l6.8,6.8c0.3,0.3,0.7,0.3,0.9,0c0.3-0.3,0.3-0.7,0-0.9l-5.9-5.9
	l9.4,0L141,94.2c0.3,0.3,0.7,0.3,0.9,0c0.3-0.3,0.3-0.7,0-0.9l-9.4-9.4l10.1,0l6.1,6.1c0.3,0.3,0.7,0.3,0.9,0c0.3-0.3,0.3-0.7,0-0.9
	l-5.2-5.2l8.9,0c0.4,0,0.7-0.3,0.7-0.7c0-0.4-0.3-0.7-0.7-0.7l-8.9,0l5.2-5.2c0.3-0.3,0.3-0.7,0-0.9c-0.3-0.3-0.7-0.3-0.9,0
	l-6.1,6.1l-10.1,0l9.4-9.4c0.3-0.3,0.3-0.7,0-0.9c-0.3-0.3-0.7-0.3-0.9,0l-10.3,10.3l-9.4,0l5.9-5.9c0.3-0.3,0.3-0.7,0-0.9
	c-0.3-0.3-0.7-0.3-0.9,0l-6.8,6.8l-1.8,0c0.1-0.3,0.3-0.6,0.5-0.9l7-7c0.4-0.4,1-0.6,1.6-0.6c0.6,0,1.1,0.3,1.5,0.7
	c0.3,0.4,0.5,0.9,0.5,1.4c0,0.6-0.2,1.2-0.7,1.7L128,78c-0.5,0.5-0.7,1.3-0.4,2c0.3,0.7,0.9,1.1,1.7,1.1c0.5,0,0.9-0.2,1.3-0.5
	l9.4-9.4c0.4-0.4,1-0.6,1.6-0.6c0.6,0,1.1,0.3,1.5,0.7c0.8,0.8,0.7,2.2-0.2,3.1l-3.6,3.6c-0.5,0.5-0.7,1.3-0.4,2
	c0.3,0.7,0.9,1.1,1.7,1.1h0.7c0.5,0,0.9-0.2,1.3-0.5l5.2-5.2c0.4-0.4,1-0.6,1.6-0.6c0.6,0,1.1,0.3,1.5,0.7c0.8,0.8,0.7,2.2-0.2,3.1
	l-1.4,1.4c-0.2,0.2-0.2,0.5-0.1,0.7c0.1,0.2,0.3,0.4,0.6,0.4l3.7,0c0.6,0,1.2,0.3,1.6,0.7c0.4,0.5,0.6,1,0.5,1.7
	c-0.1,1.1-1.1,1.9-2.3,1.9l-3.6,0c-0.3,0-0.5,0.2-0.6,0.4c-0.1,0.2,0,0.5,0.1,0.7l1.5,1.5c0.4,0.4,0.6,1,0.6,1.6
	c0,0.6-0.3,1.1-0.7,1.5c-0.8,0.8-2.2,0.7-3.1-0.2l-5-5c-0.3-0.3-0.8-0.5-1.3-0.5h-0.7c-0.8,0-1.4,0.4-1.7,1.1
	c-0.3,0.7-0.1,1.5,0.4,2l3.7,3.7c0.4,0.4,0.6,1,0.6,1.6c0,0.6-0.3,1.1-0.7,1.5c-0.8,0.8-2.2,0.7-3.1-0.2l-9.3-9.3
	c-0.3-0.3-0.8-0.5-1.3-0.5C128.5,85.4,127.9,85.8,127.6,86.5L127.6,86.5z"/>
<path class="st0" d="M115,54.5c1.4-1.4,1.5-3.5,0.2-4.9c-0.6-0.7-1.5-1.1-2.5-1.1c-1,0-1.9,0.3-2.5,1l-3.7,3.7
	c-0.2,0.2-0.5,0.1-0.6,0.1c-0.1,0-0.3-0.2-0.3-0.5l0-0.7c0-0.1,0.1-0.3,0.1-0.4l5-5c1.4-1.4,1.5-3.5,0.2-4.9
	c-0.6-0.7-1.5-1.1-2.5-1.1c-1,0-1.9,0.3-2.5,1l-0.4,0.4l0-2c0-1.8-1.4-3.4-3.1-3.6c-1-0.1-1.9,0.2-2.7,0.9c-0.7,0.7-1.1,1.6-1.1,2.6
	l0,2.2l-0.3-0.3c-1.4-1.4-3.5-1.5-4.9-0.2c-0.7,0.6-1.1,1.5-1.1,2.5c0,1,0.3,1.9,1,2.5l5.2,5.2c0.1,0.1,0.1,0.2,0.1,0.4l0,0.7
	c0,0.3-0.2,0.4-0.3,0.5c-0.1,0-0.3,0.1-0.6-0.1l-3.6-3.6c-1.4-1.4-3.5-1.5-4.9-0.2c-0.7,0.6-1.1,1.5-1.1,2.5c0,1,0.3,1.9,1,2.5
	l9.4,9.4c0.1,0.1,0.1,0.2,0.1,0.4c0,0.3-0.2,0.4-0.3,0.5c-0.1,0-0.3,0.1-0.6-0.1l-0.1-0.1c-1.4-1.4-3.5-1.5-4.9-0.2
	c-0.7,0.6-1.1,1.5-1.1,2.5c0,1,0.3,1.9,1,2.5l7,7c0.7,0.7,1.5,1,2.4,1h0h0c0.9,0,1.8-0.4,2.4-1l6.9-6.9c1.4-1.4,1.5-3.5,0.2-4.9
	c-0.6-0.7-1.5-1.1-2.5-1.1c-1,0-1.9,0.3-2.5,1l-0.2,0.2c-0.2,0.2-0.5,0.1-0.6,0.1c-0.1,0-0.3-0.2-0.3-0.5c0-0.1,0.1-0.3,0.1-0.4
	L115,54.5L115,54.5z M105.4,65.8c0.7,0.3,1.5,0.1,2-0.4l0.2-0.2c0.4-0.4,1-0.6,1.6-0.6c0.6,0,1.1,0.3,1.5,0.7
	c0.8,0.8,0.7,2.2-0.2,3.1l-6.9,6.9c-0.2,0.2-0.5,0.4-0.9,0.5l0-1.8l6.8-6.8c0.3-0.3,0.3-0.7,0-0.9c-0.3-0.3-0.7-0.3-0.9,0l-5.9,5.9
	l0-9.4l10.3-10.3c0.3-0.3,0.3-0.7,0-0.9c-0.3-0.3-0.7-0.3-0.9,0l-9.4,9.4l0-10.1l6.1-6.1c0.3-0.3,0.3-0.7,0-0.9
	c-0.3-0.3-0.7-0.3-0.9,0l-5.2,5.2l0-8.9c0-0.4-0.3-0.7-0.7-0.7c-0.4,0-0.7,0.3-0.7,0.7l0,8.9l-5.2-5.2c-0.3-0.3-0.7-0.3-0.9,0
	c-0.3,0.3-0.3,0.7,0,0.9l6.1,6.1l0,10.1l-9.4-9.4c-0.3-0.3-0.7-0.3-0.9,0c-0.3,0.3-0.3,0.7,0,0.9l10.3,10.3l0,9.4l-5.9-5.9
	c-0.3-0.3-0.7-0.3-0.9,0c-0.3,0.3-0.3,0.7,0,0.9l6.8,6.8l0,1.8c-0.3-0.1-0.6-0.3-0.9-0.5l-7-7c-0.4-0.4-0.6-1-0.6-1.6
	c0-0.6,0.3-1.1,0.7-1.5c0.4-0.3,0.9-0.5,1.4-0.5c0.6,0,1.2,0.2,1.7,0.7l0.1,0.1c0.5,0.5,1.3,0.7,2,0.4c0.7-0.3,1.1-0.9,1.1-1.7
	c0-0.5-0.2-0.9-0.5-1.3l-9.4-9.4c-0.4-0.4-0.6-1-0.6-1.6c0-0.6,0.3-1.1,0.7-1.5c0.8-0.8,2.2-0.7,3.1,0.2l3.6,3.6
	c0.5,0.5,1.3,0.7,2,0.4c0.7-0.3,1.1-0.9,1.1-1.7l0-0.7c0-0.5-0.2-0.9-0.5-1.3l-5.2-5.2c-0.4-0.4-0.6-1-0.6-1.6
	c0-0.6,0.3-1.1,0.7-1.5c0.8-0.8,2.2-0.7,3.1,0.2l1.4,1.4c0.2,0.2,0.5,0.2,0.7,0.1c0.2-0.1,0.4-0.3,0.4-0.6l0-3.7
	c0-0.6,0.3-1.2,0.7-1.6c0.5-0.4,1-0.6,1.7-0.5c1.1,0.1,1.9,1.1,1.9,2.3l0,3.6c0,0.3,0.2,0.5,0.4,0.6c0.2,0.1,0.5,0,0.7-0.1l1.5-1.5
	c0.4-0.4,1-0.6,1.6-0.6c0.6,0,1.1,0.3,1.5,0.7c0.8,0.8,0.7,2.2-0.2,3.1l-5,5c-0.3,0.3-0.5,0.8-0.5,1.3l0,0.7c0,0.8,0.4,1.4,1.1,1.7
	c0.7,0.3,1.5,0.1,2-0.4l3.7-3.7c0.4-0.4,1-0.6,1.6-0.6c0.6,0,1.1,0.3,1.5,0.7c0.8,0.8,0.7,2.2-0.2,3.1l-9.3,9.3
	c-0.3,0.3-0.5,0.8-0.5,1.3C104.3,64.9,104.7,65.5,105.4,65.8L105.4,65.8z"/>
<path class="st0" d="M149.5,60.2c1.9,0,3.5-1.4,3.6-3.3c0.1-1-0.3-1.9-0.9-2.6c-0.7-0.7-1.6-1.1-2.5-1.1l-5.3,0
	c-0.3,0-0.4-0.2-0.5-0.3c0-0.1-0.1-0.3,0.1-0.6l0.5-0.5c0.1-0.1,0.2-0.1,0.4-0.1l7.1,0c1.9,0,3.5-1.4,3.6-3.3c0.1-1-0.3-1.9-0.9-2.6
	c-0.7-0.7-1.6-1.1-2.5-1.1h-0.6l1.4-1.4c1.3-1.3,1.4-3.4,0.3-4.7c-0.6-0.8-1.5-1.2-2.5-1.3c-1,0-1.9,0.3-2.6,1l-1.5,1.5v-0.4
	c0-1.9-1.4-3.5-3.3-3.6c-1-0.1-1.9,0.3-2.6,0.9c-0.7,0.7-1.1,1.6-1.1,2.5l0,7.3c0,0.1-0.1,0.3-0.1,0.4l-0.5,0.5
	c-0.2,0.2-0.5,0.1-0.6,0.1c-0.1,0-0.3-0.2-0.3-0.5l0-5.1c0-1.9-1.4-3.5-3.3-3.6c-1-0.1-1.9,0.3-2.6,0.9c-0.7,0.7-1.1,1.6-1.1,2.5
	l0,13.2c0,0.1-0.1,0.3-0.1,0.4c-0.2,0.2-0.5,0.1-0.6,0.1c-0.1,0-0.3-0.2-0.3-0.5v-0.2c0-1.9-1.4-3.5-3.3-3.6c-1-0.1-1.9,0.3-2.6,0.9
	c-0.7,0.7-1.1,1.6-1.1,2.5l0,9.9c0,0.9,0.4,1.8,1,2.4l0,0l0,0c0.7,0.7,1.5,1,2.4,1h9.8c1.9,0,3.5-1.4,3.6-3.3c0.1-1-0.3-1.9-0.9-2.6
	c-0.7-0.7-1.6-1.1-2.5-1.1h-0.3c-0.3,0-0.4-0.2-0.5-0.3c0-0.1-0.1-0.3,0.1-0.6c0.1-0.1,0.2-0.1,0.4-0.1L149.5,60.2L149.5,60.2z
	 M134.7,61.4c0.3,0.7,0.9,1.1,1.7,1.1h0.3c0.6,0,1.1,0.2,1.6,0.7c0.4,0.4,0.6,1,0.6,1.6c-0.1,1.1-1.1,2-2.3,2h-9.8
	c-0.3,0-0.7-0.1-1-0.2l1.3-1.3l9.7,0c0.4,0,0.7-0.3,0.7-0.7c0-0.4-0.3-0.7-0.7-0.7l-8.3,0l6.6-6.6l14.6,0c0.4,0,0.7-0.3,0.7-0.7
	c0-0.4-0.3-0.7-0.7-0.7l-13.3,0l7.1-7.1l8.7,0c0.4,0,0.7-0.3,0.7-0.7c0-0.4-0.3-0.7-0.7-0.7l-7.3,0l6.3-6.3c0.3-0.3,0.3-0.7,0-0.9
	c-0.3-0.3-0.7-0.3-0.9,0l-6.3,6.3l0-7.3c0-0.4-0.3-0.7-0.7-0.7c-0.4,0-0.7,0.3-0.7,0.7l0,8.7l-7.1,7.1l0-13.3c0-0.4-0.3-0.7-0.7-0.7
	c-0.4,0-0.7,0.3-0.7,0.7l0,14.6l-6.6,6.6l0-8.3c0-0.4-0.3-0.7-0.7-0.7c-0.4,0-0.7,0.3-0.7,0.7l0,9.7l-1.3,1.3
	c-0.2-0.3-0.2-0.6-0.2-1l0-9.9c0-0.6,0.2-1.1,0.7-1.6c0.4-0.4,1-0.6,1.6-0.6c0.5,0,1,0.3,1.3,0.6c0.4,0.4,0.7,1,0.7,1.7v0.2
	c0,0.8,0.4,1.4,1.1,1.7c0.7,0.3,1.5,0.1,2-0.4c0.3-0.3,0.5-0.8,0.5-1.3l0-13.2c0-0.6,0.2-1.1,0.7-1.6c0.4-0.4,1-0.6,1.6-0.6
	c1.1,0.1,2,1.1,2,2.3l0,5.1c0,0.8,0.4,1.4,1.1,1.7c0.7,0.3,1.5,0.1,2-0.4l0.5-0.5c0.3-0.3,0.5-0.8,0.5-1.3l0-7.3
	c0-0.6,0.2-1.1,0.7-1.6c0.4-0.4,1-0.6,1.6-0.6c1.1,0.1,2,1.1,2,2.3l0,2c0,0.3,0.2,0.5,0.4,0.6c0.2,0.1,0.5,0,0.7-0.1l2.7-2.7
	c0.4-0.4,1-0.7,1.6-0.6c0.6,0,1.2,0.3,1.6,0.8c0.7,0.8,0.6,2.1-0.2,3l-2.6,2.6c-0.2,0.2-0.2,0.5-0.1,0.7c0.1,0.2,0.3,0.4,0.6,0.4
	l2.2,0c0.6,0,1.1,0.2,1.6,0.7c0.4,0.4,0.6,1,0.6,1.6c-0.1,1.1-1.1,2-2.3,2l-7.1,0c-0.5,0-0.9,0.2-1.3,0.5l-0.5,0.5
	c-0.5,0.5-0.7,1.3-0.4,2c0.3,0.7,0.9,1.1,1.7,1.1l5.3,0c0.6,0,1.1,0.2,1.6,0.7c0.4,0.4,0.6,1,0.6,1.6c-0.1,1.1-1.1,2-2.3,2l-13.1,0
	c-0.5,0-0.9,0.2-1.3,0.5C134.6,59.9,134.4,60.7,134.7,61.4L134.7,61.4z"/>
<path class="st1" d="M133.6,34.3c1.5,0,2.7-1.1,2.8-2.5c0-0.7-0.2-1.4-0.7-2c-0.5-0.5-1.2-0.8-1.9-0.8l-4,0c-0.2,0-0.3-0.2-0.4-0.2
	c0-0.1-0.1-0.3,0.1-0.4l0.4-0.4c0.1-0.1,0.2-0.1,0.3-0.1l5.4,0c1.5,0,2.7-1.1,2.8-2.5c0-0.7-0.2-1.4-0.7-2c-0.5-0.5-1.2-0.8-1.9-0.8
	l-0.4,0l1.1-1.1c1-1,1.1-2.6,0.2-3.6c-0.5-0.6-1.2-0.9-1.9-1c-0.7,0-1.5,0.2-2,0.8l-1.2,1.2v-0.3c0-1.5-1.1-2.7-2.5-2.8
	c-0.7,0-1.4,0.2-2,0.7c-0.5,0.5-0.8,1.2-0.8,1.9l0,5.6c0,0.1,0,0.2-0.1,0.3l-0.4,0.4c-0.2,0.2-0.4,0.1-0.4,0.1
	c-0.1,0-0.2-0.1-0.2-0.4l0-3.9c0-1.5-1.1-2.7-2.5-2.8c-0.7,0-1.4,0.2-2,0.7c-0.5,0.5-0.8,1.2-0.8,1.9l0,10.1c0,0.1,0,0.2-0.1,0.3
	c-0.2,0.2-0.4,0.1-0.4,0.1c-0.1,0-0.2-0.1-0.2-0.4v-0.1c0-1.5-1.1-2.7-2.5-2.8c-0.7,0-1.4,0.2-2,0.7c-0.5,0.5-0.8,1.2-0.8,1.9l0,7.6
	c0,0.7,0.3,1.4,0.8,1.9l0,0l0,0c0.5,0.5,1.2,0.8,1.9,0.8l7.4,0c1.5,0,2.7-1.1,2.8-2.5c0-0.7-0.2-1.4-0.7-2c-0.5-0.5-1.2-0.8-1.9-0.8
	l-0.3,0c-0.2,0-0.3-0.2-0.4-0.2c0-0.1-0.1-0.3,0.1-0.4c0.1-0.1,0.2-0.1,0.3-0.1L133.6,34.3L133.6,34.3z M122.3,35.2
	c0.2,0.5,0.7,0.9,1.3,0.9h0.3c0.5,0,0.9,0.2,1.2,0.5c0.3,0.3,0.5,0.8,0.4,1.2c0,0.9-0.8,1.5-1.8,1.5h-7.4c-0.3,0-0.5-0.1-0.7-0.2
	l1-1l7.4,0c0.3,0,0.5-0.2,0.5-0.5c0-0.3-0.2-0.5-0.5-0.5l-6.4,0l5-5l11.1,0c0.3,0,0.5-0.2,0.5-0.5c0-0.3-0.2-0.5-0.5-0.5l-10.1,0
	l5.4-5.4l6.6,0c0.3,0,0.5-0.2,0.5-0.5c0-0.3-0.2-0.5-0.5-0.5l-5.6,0l4.8-4.8c0.2-0.2,0.2-0.5,0-0.7s-0.5-0.2-0.7,0l-4.8,4.8l0-5.6
	c0-0.3-0.2-0.5-0.5-0.5c-0.3,0-0.5,0.2-0.5,0.5l0,6.6l-5.4,5.4l0-10.1c0-0.3-0.2-0.5-0.5-0.5c-0.3,0-0.5,0.2-0.5,0.5l0,11.1l-5,5
	l0-6.4c0-0.3-0.2-0.5-0.5-0.5c-0.3,0-0.5,0.2-0.5,0.5l0,7.4l-1,1c-0.1-0.2-0.2-0.5-0.2-0.7l0-7.6c0-0.5,0.2-0.9,0.5-1.2
	c0.3-0.3,0.8-0.5,1.2-0.4c0.4,0,0.7,0.2,1,0.5c0.3,0.3,0.5,0.8,0.5,1.3v0.1c0,0.6,0.3,1.1,0.9,1.3c0.5,0.2,1.1,0.1,1.5-0.3
	c0.3-0.3,0.4-0.6,0.4-1l0-10.1c0-0.5,0.2-0.9,0.5-1.2c0.3-0.3,0.8-0.5,1.2-0.4c0.9,0,1.5,0.8,1.5,1.8l0,3.9c0,0.6,0.3,1.1,0.9,1.3
	c0.5,0.2,1.1,0.1,1.5-0.3l0.4-0.4c0.3-0.3,0.4-0.6,0.4-1l0-5.6c0-0.5,0.2-0.9,0.5-1.2c0.3-0.3,0.8-0.5,1.2-0.4
	c0.9,0,1.5,0.8,1.5,1.8l0,1.5c0,0.2,0.1,0.4,0.3,0.5c0.2,0.1,0.4,0,0.5-0.1l2-2c0.3-0.3,0.8-0.5,1.2-0.5c0.5,0,0.9,0.2,1.2,0.6
	c0.5,0.6,0.5,1.6-0.2,2.3l-2,2c-0.1,0.1-0.2,0.4-0.1,0.5c0.1,0.2,0.3,0.3,0.5,0.3h1.6c0.5,0,0.9,0.2,1.2,0.5
	c0.3,0.3,0.5,0.8,0.4,1.2c0,0.9-0.8,1.5-1.8,1.5l-5.4,0c-0.4,0-0.7,0.1-1,0.4l-0.4,0.4c-0.4,0.4-0.5,1-0.3,1.5
	c0.2,0.5,0.7,0.9,1.3,0.9l4,0c0.5,0,0.9,0.2,1.2,0.5c0.3,0.3,0.5,0.8,0.4,1.2c0,0.9-0.8,1.5-1.8,1.5l-10,0c-0.4,0-0.7,0.1-1,0.4
	C122.2,34.1,122.1,34.7,122.3,35.2L122.3,35.2z"/>
<path class="st0" d="M111.8,14.3c1-1,1.1-2.7,0.2-3.7c-0.5-0.5-1.2-0.9-1.9-0.9c-0.7,0-1.4,0.3-1.9,0.8l-2.9,2.9
	c-0.2,0.2-0.4,0.1-0.4,0.1c-0.1,0-0.2-0.1-0.2-0.4v-0.5c0-0.1,0-0.2,0.1-0.3l3.8-3.8c1-1,1.1-2.7,0.2-3.7c-0.5-0.5-1.2-0.9-1.9-0.9
	c-0.7,0-1.4,0.3-1.9,0.8L104.6,5l0-1.6c0-1.4-1-2.6-2.4-2.7c-0.7-0.1-1.5,0.2-2,0.7c-0.5,0.5-0.9,1.2-0.9,1.9l0,1.6l-0.2-0.2
	c-1-1-2.7-1.1-3.7-0.2c-0.5,0.5-0.9,1.2-0.9,1.9c0,0.7,0.3,1.4,0.8,1.9l3.9,3.9c0.1,0.1,0.1,0.2,0.1,0.3v0.5c0,0.2-0.2,0.3-0.2,0.4
	c-0.1,0-0.3,0.1-0.4-0.1l-2.8-2.8c-1-1-2.7-1.1-3.7-0.2c-0.5,0.5-0.9,1.2-0.9,1.9c0,0.7,0.3,1.4,0.8,1.9l7.1,7.1
	c0.1,0.1,0.1,0.2,0.1,0.3c0,0.2-0.2,0.3-0.2,0.4c-0.1,0-0.3,0.1-0.4-0.1l-0.1-0.1c-1-1-2.7-1.1-3.7-0.2c-0.5,0.5-0.9,1.2-0.9,1.9
	c0,0.7,0.3,1.4,0.8,1.9l5.3,5.3c0.5,0.5,1.2,0.8,1.9,0.8h0h0c0.7,0,1.4-0.3,1.9-0.8l5.3-5.3c1-1,1.1-2.7,0.2-3.7
	c-0.5-0.5-1.2-0.9-1.9-0.9c-0.7,0-1.4,0.3-1.9,0.8l-0.2,0.2c-0.2,0.2-0.4,0.1-0.4,0.1c-0.1,0-0.2-0.1-0.2-0.4c0-0.1,0-0.2,0.1-0.3
	L111.8,14.3L111.8,14.3z M104.5,22.9c0.5,0.2,1.1,0.1,1.5-0.3l0.2-0.2c0.3-0.3,0.7-0.5,1.2-0.5c0.5,0,0.9,0.2,1.2,0.5
	c0.6,0.6,0.5,1.7-0.1,2.3l-5.3,5.3c-0.2,0.2-0.4,0.3-0.7,0.4l0-1.3l5.2-5.2c0.2-0.2,0.2-0.5,0-0.7c-0.2-0.2-0.5-0.2-0.7,0l-4.5,4.5
	l0-7.1l7.9-7.9c0.2-0.2,0.2-0.5,0-0.7c-0.2-0.2-0.5-0.2-0.7,0l-7.2,7.2l0-7.7l4.7-4.7c0.2-0.2,0.2-0.5,0-0.7c-0.2-0.2-0.5-0.2-0.7,0
	l-3.9,3.9l0-6.8c0-0.3-0.2-0.5-0.5-0.5c-0.3,0-0.5,0.2-0.5,0.5l0,6.8l-3.9-3.9C97.4,6,97,6,96.8,6.2c-0.2,0.2-0.2,0.5,0,0.7l4.7,4.7
	l0,7.7L94.4,12c-0.2-0.2-0.5-0.2-0.7,0c-0.2,0.2-0.2,0.5,0,0.7l7.9,7.9l0,7.1L97,23.2c-0.2-0.2-0.5-0.2-0.7,0
	c-0.2,0.2-0.2,0.5,0,0.7l5.2,5.2l0,1.3c-0.2-0.1-0.5-0.2-0.7-0.4l-5.3-5.3C95.2,24.4,95,24,95,23.6c0-0.5,0.2-0.9,0.5-1.2
	c0.3-0.3,0.7-0.4,1.1-0.4c0.5,0,0.9,0.2,1.3,0.5l0.1,0.1c0.4,0.4,1,0.5,1.5,0.3c0.5-0.2,0.9-0.7,0.9-1.3c0-0.4-0.1-0.7-0.4-1
	l-7.1-7.1c-0.3-0.3-0.5-0.7-0.5-1.2c0-0.5,0.2-0.9,0.5-1.2c0.6-0.6,1.7-0.5,2.3,0.1l2.8,2.8c0.4,0.4,1,0.5,1.5,0.3
	c0.5-0.2,0.9-0.7,0.9-1.3v-0.5c0-0.4-0.1-0.7-0.4-1L96,7.7c-0.3-0.3-0.5-0.7-0.5-1.2c0-0.5,0.2-0.9,0.5-1.2c0.6-0.6,1.7-0.5,2.3,0.1
	l1.1,1.1c0.1,0.1,0.4,0.2,0.5,0.1c0.2-0.1,0.3-0.3,0.3-0.5l0-2.9c0-0.5,0.2-0.9,0.5-1.2c0.3-0.3,0.8-0.5,1.3-0.4
	c0.8,0.1,1.5,0.8,1.5,1.7l0,2.8c0,0.2,0.1,0.4,0.3,0.5c0.2,0.1,0.4,0,0.5-0.1l1.2-1.2c0.3-0.3,0.7-0.5,1.2-0.5
	c0.5,0,0.9,0.2,1.2,0.5c0.6,0.6,0.5,1.7-0.1,2.3l-3.8,3.8c-0.3,0.3-0.4,0.6-0.4,1v0.5c0,0.6,0.3,1.1,0.9,1.3
	c0.5,0.2,1.1,0.1,1.5-0.3l2.9-2.9c0.3-0.3,0.7-0.5,1.2-0.5c0.5,0,0.9,0.2,1.2,0.5c0.6,0.6,0.5,1.7-0.1,2.3l-7,7
	c-0.3,0.3-0.4,0.6-0.4,1C103.6,22.2,104,22.7,104.5,22.9L104.5,22.9z"/>
<path class="st1" d="M84.9,22.4c0-1.4-1-2.6-2.4-2.6c-0.7,0-1.4,0.2-1.9,0.7c-0.5,0.5-0.8,1.1-0.8,1.8l0,3.9c0,0.2-0.2,0.3-0.2,0.3
	c-0.1,0-0.2,0.1-0.4-0.1L78.9,26c-0.1-0.1-0.1-0.2-0.1-0.3l0-5.2c0-1.4-1-2.6-2.4-2.6c-0.7,0-1.4,0.2-1.9,0.7
	c-0.5,0.5-0.8,1.1-0.8,1.8l0,0.4l-1-1c-0.9-0.9-2.5-1-3.4-0.2c-0.5,0.5-0.9,1.1-0.9,1.8c0,0.7,0.2,1.4,0.7,1.9l1.1,1.1l-0.3,0
	c-1.4,0-2.6,1-2.6,2.4c0,0.7,0.2,1.4,0.7,1.9c0.5,0.5,1.1,0.8,1.8,0.8l5.3,0c0.1,0,0.2,0,0.3,0.1l0.4,0.4c0.2,0.2,0.1,0.3,0.1,0.4
	c0,0.1-0.1,0.2-0.3,0.2l-3.7,0c-1.4,0-2.6,1-2.6,2.4c0,0.7,0.2,1.4,0.7,1.9c0.5,0.5,1.1,0.8,1.8,0.8l9.6,0c0.1,0,0.2,0,0.3,0.1
	c0.2,0.2,0.1,0.3,0.1,0.4c0,0.1-0.1,0.2-0.3,0.2l-0.1,0c-1.4,0-2.6,1-2.6,2.4c0,0.7,0.2,1.4,0.7,1.9c0.5,0.5,1.1,0.8,1.8,0.8l7.2,0
	c0.7,0,1.3-0.3,1.8-0.7l0,0l0,0c0.5-0.5,0.7-1.1,0.7-1.8l0-7.1c0-1.4-1-2.6-2.4-2.6c-0.7,0-1.4,0.2-1.9,0.7
	c-0.5,0.5-0.8,1.1-0.8,1.8l0,0.2c0,0.2-0.2,0.3-0.2,0.3s-0.2,0.1-0.4-0.1c-0.1-0.1-0.1-0.2-0.1-0.3L84.9,22.4L84.9,22.4z M85.8,33.1
	c0.5-0.2,0.8-0.7,0.8-1.2l0-0.2c0-0.4,0.2-0.8,0.5-1.1c0.3-0.3,0.7-0.4,1.2-0.4c0.8,0,1.5,0.8,1.5,1.7l0,7.1c0,0.3-0.1,0.5-0.2,0.7
	l-0.9-0.9l0-7c0-0.3-0.2-0.5-0.5-0.5c-0.3,0-0.5,0.2-0.5,0.5l0,6.1l-4.8-4.8l0-10.6c0-0.3-0.2-0.5-0.5-0.5c-0.3,0-0.5,0.2-0.5,0.5
	l0,9.7l-5.2-5.2l0-6.3c0-0.3-0.2-0.5-0.5-0.5c-0.3,0-0.5,0.2-0.5,0.5l0,5.3l-4.6-4.6c-0.2-0.2-0.5-0.2-0.7,0c-0.2,0.2-0.2,0.5,0,0.7
	l4.6,4.6l-5.3,0c-0.3,0-0.5,0.2-0.5,0.5c0,0.3,0.2,0.5,0.5,0.5l6.3,0l5.2,5.2l-9.7,0c-0.3,0-0.5,0.2-0.5,0.5c0,0.3,0.2,0.5,0.5,0.5
	l10.6,0l4.8,4.8l-6.1,0c-0.3,0-0.5,0.2-0.5,0.5c0,0.3,0.2,0.5,0.5,0.5l7,0l0.9,0.9c-0.2,0.1-0.5,0.2-0.7,0.2l-7.2,0
	c-0.4,0-0.8-0.2-1.1-0.5c-0.3-0.3-0.4-0.7-0.4-1.2c0-0.4,0.2-0.7,0.4-1c0.3-0.3,0.8-0.5,1.2-0.5h0.1c0.5,0,1-0.3,1.2-0.8
	c0.2-0.5,0.1-1.1-0.3-1.4c-0.3-0.3-0.6-0.4-0.9-0.4l-9.6,0c-0.4,0-0.8-0.2-1.1-0.5C70.1,33.8,70,33.4,70,33c0-0.8,0.8-1.5,1.7-1.5
	l3.7,0c0.5,0,1-0.3,1.2-0.8c0.2-0.5,0.1-1.1-0.3-1.4L76,28.9c-0.3-0.3-0.6-0.4-0.9-0.4l-5.3,0c-0.4,0-0.8-0.2-1.1-0.5
	c-0.3-0.3-0.4-0.7-0.4-1.2c0-0.8,0.8-1.5,1.7-1.5l1.5,0c0.2,0,0.4-0.1,0.4-0.3c0.1-0.2,0-0.4-0.1-0.5l-1.9-1.9
	c-0.3-0.3-0.5-0.7-0.5-1.2c0-0.4,0.2-0.8,0.6-1.1c0.6-0.5,1.6-0.4,2.2,0.2l1.9,1.9c0.1,0.1,0.3,0.2,0.5,0.1c0.2-0.1,0.3-0.2,0.3-0.4
	l0-1.6c0-0.4,0.2-0.8,0.5-1.1c0.3-0.3,0.7-0.4,1.2-0.4c0.8,0,1.5,0.8,1.5,1.7l0,5.2c0,0.4,0.1,0.7,0.4,0.9l0.4,0.4
	c0.4,0.4,0.9,0.5,1.4,0.3c0.5-0.2,0.8-0.7,0.8-1.2l0-3.9c0-0.4,0.2-0.8,0.5-1.1c0.3-0.3,0.7-0.4,1.2-0.4c0.8,0,1.5,0.8,1.5,1.7
	l0,9.5c0,0.4,0.1,0.7,0.4,0.9C84.7,33.2,85.3,33.3,85.8,33.1L85.8,33.1z"/>
<path class="st2" d="M89.6,127.4c8.5,0,17.1,0,25.6,0c-7.6-7.3-8.8-15.4-9.3-23c-1.1-15.5,6.9-25.2,15.9-35.7
	c-14.3,12-16.3,16.4-19.4,16.4c-3.1,0-5.2-4.5-19.4-16.4c9,10.5,17.1,20.2,15.9,35.7C98.3,112,97.1,120.1,89.6,127.4L89.6,127.4z"/>
<g>
	<path d="M2.3,128.5l-0.7-1.8c0.8,0,1.4-0.3,2-0.8c0.6-0.5,0.9-1.5,0.9-2.8v-16.6l-2.1-0.1v-2.2H7v18.9C7,126.7,5.4,128.4,2.3,128.5
		z"/>
	<path d="M22.6,127.2h-2.3V126c-0.9,1.1-2.2,1.6-3.8,1.6c-4.1,0-6.2-2-6.2-6v-10.8h2.4v10.8c0,2.5,1.3,3.8,3.8,3.8
		c2.5,0,3.7-1.3,3.7-3.8v-10.8h2.4V127.2z"/>
	<path d="M37.3,127.2H35V126c-0.9,1.1-2.2,1.6-3.8,1.6c-4.1,0-6.2-2-6.2-6v-10.8h2.4v10.8c0,2.5,1.3,3.8,3.8,3.8
		c2.5,0,3.7-1.3,3.7-3.8v-10.8h2.4V127.2z"/>
	<path d="M43.4,111.4c1-0.6,2.2-0.9,3.5-0.9c1.3,0,2.5,0.2,3.4,0.6c1.9,0.9,2.8,2.4,2.8,4.7v6.2c0,2.2-0.9,3.7-2.6,4.6
		c-1.3,0.7-2.7,1-4.3,1c-1.6,0-3.3-0.1-5.2-0.4v-23h2.4V111.4z M50.9,122.1v-5.9c0-1.1-0.3-1.9-0.9-2.5c-0.6-0.7-1.6-1-2.8-1
		l-1.6,0.2c-0.8,0.2-1.5,0.4-2.1,0.8v11.5c1.1,0.2,1.9,0.2,2.5,0.2s0.9,0,0.9,0c1.1,0,2-0.3,2.8-0.9C50.5,124,50.9,123.2,50.9,122.1
		z"/>
	<path d="M58.5,122.7c0,1.9,1.1,2.8,3.3,2.8c1.4,0,2.8-0.4,4.5-1.3l0.9,1.9c-1.7,1-3.4,1.5-5.3,1.5c-3.8,0-5.7-1.6-5.7-4.8v-6.7
		c0-1.8,0.6-3.2,1.7-4.1c1.1-1,2.6-1.5,4.4-1.5s3.2,0.5,4.3,1.5s1.5,2.3,1.5,4.1v4.5l-9.5,0.5V122.7z M65.6,118.4v-2.5
		c0-1.2-0.4-2-1.1-2.5c-0.7-0.5-1.6-0.7-2.5-0.7c-1,0-1.8,0.3-2.4,0.9c-0.7,0.6-1,1.5-1,2.6v2.6L65.6,118.4z"/>
	<path d="M74.2,127.2h-2.4v-23h2.4V127.2z"/>
	<path d="M82.1,105.3c0,0.4-0.1,0.7-0.4,1s-0.6,0.4-0.9,0.4s-0.7-0.1-1-0.4c-0.3-0.3-0.4-0.6-0.4-0.9s0.1-0.7,0.4-0.9
		c0.3-0.3,0.6-0.4,1-0.4s0.7,0.1,0.9,0.4S82.1,104.9,82.1,105.3z M81.9,127.2h-2.4v-16.5h2.4V127.2z"/>
	<path d="M128.9,127.2h-2.4v-20.8h-5.3v-2.2h13.2v2.2h-5.5V127.2z"/>
	<path d="M132.8,119c0-3.3,1.7-4.9,5-4.9c0.5,0,1,0,1.5,0.1c1.6,0.3,2.8,0.8,3.8,1.5c0-2.3-1.5-3.4-4.6-3.4l0.2-1.7
		c1.8,0,3.1,0.2,3.9,0.6c0.5,0.2,0.9,0.5,1.2,0.7c0.3,0.2,0.6,0.6,0.8,1c0.2,0.4,0.4,0.7,0.5,1c0.1,0.3,0.2,0.7,0.3,1.2
		c0.1,0.8,0.1,1.6,0.1,2.4v9.8c-2.3,0.2-4.1,0.3-5.5,0.3c-4.8,0-7.2-2-7.2-5.9V119z M143.1,125.2v-7.5c-1.5-0.8-3.1-1.2-4.8-1.4
		c-0.2,0-0.3,0-0.5,0c-0.7,0-1.3,0.2-1.8,0.6c-0.5,0.4-0.8,1.2-0.8,2.2v2.6c0,2.5,1.7,3.7,5.1,3.7
		C141.1,125.5,142.1,125.4,143.1,125.2z"/>
	<path d="M159.3,112.1c1.9-1.1,3.6-1.6,5.3-1.6c1.6,0,2.8,0.5,3.7,1.5s1.4,2.3,1.4,3.8v11.4h-2.4v-10.9c0-1.9-0.6-3-1.8-3.4
		c-0.5-0.1-0.8-0.2-1.2-0.2s-0.7,0-1.1,0s-1,0.2-1.7,0.5l-1,0.5c0.3,0.6,0.4,1.3,0.4,2.1v11.5h-2.4v-10.8c0-1-0.2-1.9-0.7-2.5
		c-0.6-0.8-1.5-1.2-2.8-1.2s-2.4,0.3-3.5,1v13.5h-2.4v-16.5h2.2l0,0.8c1.2-0.7,2.6-1.1,4.1-1.1C157,110.5,158.3,111.1,159.3,112.1z"
		/>
	<path d="M183.5,112.1c1.9-1.1,3.6-1.6,5.3-1.6c1.6,0,2.8,0.5,3.7,1.5s1.4,2.3,1.4,3.8v11.4h-2.4v-10.9c0-1.9-0.6-3-1.8-3.4
		c-0.5-0.1-0.8-0.2-1.2-0.2s-0.7,0-1.1,0s-1,0.2-1.7,0.5l-1,0.5c0.3,0.6,0.4,1.3,0.4,2.1v11.5h-2.4v-10.8c0-1-0.2-1.9-0.7-2.5
		c-0.6-0.8-1.5-1.2-2.8-1.2s-2.4,0.3-3.5,1v13.5h-2.4v-16.5h2.2l0,0.8c1.2-0.7,2.6-1.1,4.1-1.1C181.3,110.5,182.5,111.1,183.5,112.1
		z"/>
	<path d="M199.2,122.7c0,1.9,1.1,2.8,3.3,2.8c1.4,0,2.8-0.4,4.5-1.3l0.9,1.9c-1.7,1-3.4,1.5-5.3,1.5c-3.8,0-5.7-1.6-5.7-4.8v-6.7
		c0-1.8,0.6-3.2,1.7-4.1c1.1-1,2.6-1.5,4.4-1.5s3.2,0.5,4.3,1.5s1.5,2.3,1.5,4.1v4.5l-9.5,0.5V122.7z M206.3,118.4v-2.5
		c0-1.2-0.4-2-1.1-2.5c-0.7-0.5-1.6-0.7-2.5-0.7c-1,0-1.8,0.3-2.4,0.9c-0.7,0.6-1,1.5-1,2.6v2.6L206.3,118.4z"/>
	<path d="M214,111.1c1-0.4,2.1-0.6,3.5-0.6c1.4,0,2.5,0.3,3.5,0.9v-7.2h2.4v23c-1.9,0.3-3.6,0.4-5.2,0.4s-3-0.3-4.3-1
		c-1.7-0.9-2.6-2.4-2.6-4.6v-6.2C211.2,113.6,212.2,112,214,111.1z M221,113.7c-1.1-0.6-2.4-0.9-3.7-0.9c-1.3,0-2.2,0.3-2.8,1
		c-0.6,0.7-0.9,1.5-0.9,2.5v5.8c0,1,0.4,1.8,1.1,2.4c0.8,0.6,1.8,0.9,2.9,0.9c1.2,0,2.3-0.1,3.4-0.3V113.7z"/>
	<path d="M228.2,122.7c0,1.9,1.1,2.8,3.3,2.8c1.4,0,2.8-0.4,4.5-1.3l0.9,1.9c-1.7,1-3.4,1.5-5.3,1.5c-3.8,0-5.7-1.6-5.7-4.8v-6.7
		c0-1.8,0.6-3.2,1.7-4.1c1.1-1,2.6-1.5,4.4-1.5s3.2,0.5,4.3,1.5s1.5,2.3,1.5,4.1v4.5l-9.5,0.5V122.7z M235.3,118.4v-2.5
		c0-1.2-0.4-2-1.1-2.5c-0.7-0.5-1.6-0.7-2.5-0.7c-1,0-1.8,0.3-2.4,0.9c-0.7,0.6-1,1.5-1,2.6v2.6L235.3,118.4z"/>
</g>
</svg>
