<?xml version="1.0" encoding="utf-8"?>
<!-- Generator: Adobe Illustrator 21.1.0, SVG Export Plug-In . SVG Version: 6.00 Build 0)  -->
<svg version="1.1" id="Layer_1" xmlns="http://www.w3.org/2000/svg" xmlns:xlink="http://www.w3.org/1999/xlink" x="0px" y="0px"
	 viewBox="0 0 239.1 53.3" style="enable-background:new 0 0 239.1 53.3;" xml:space="preserve">
<style type="text/css">
	.st0{fill:#F79A10;}
	.st1{fill:#FFFFFF;}
</style>
<path class="st0" d="M117.7,24.4c1.7-1.7,1.8-4.3,0.3-6c-0.8-0.9-1.9-1.4-3.1-1.4c-1.2,0-2.3,0.4-3.1,1.3l-4.6,4.6
	c-0.3,0.3-0.6,0.2-0.7,0.1c-0.1,0-0.4-0.2-0.4-0.6l0-0.9c0-0.2,0.1-0.3,0.2-0.4l6.2-6.2c1.7-1.7,1.8-4.3,0.3-6
	c-0.8-0.9-1.9-1.4-3.1-1.4c-1.2,0-2.3,0.4-3.1,1.3L106,9.2l0-2.5c0-2.3-1.7-4.2-3.9-4.4c-1.2-0.1-2.4,0.3-3.3,1.1
	c-0.9,0.8-1.4,2-1.4,3.2l0,2.7l-0.4-0.4c-1.7-1.7-4.3-1.8-6-0.3c-0.9,0.8-1.4,1.9-1.4,3.1c0,1.2,0.4,2.3,1.3,3.1l6.4,6.4
	c0.1,0.1,0.2,0.3,0.2,0.4l0,0.9c0,0.4-0.3,0.5-0.4,0.6c-0.1,0-0.4,0.1-0.7-0.1l-4.5-4.5c-1.7-1.7-4.3-1.8-6-0.3
	c-0.9,0.8-1.4,1.9-1.4,3.1c0,1.2,0.4,2.3,1.3,3.1l11.6,11.6c0.1,0.1,0.2,0.3,0.2,0.4c0,0.4-0.3,0.5-0.4,0.6c-0.1,0-0.4,0.1-0.7-0.1
	l-0.2-0.2c-1.7-1.7-4.3-1.8-6-0.3c-0.9,0.8-1.4,1.9-1.4,3.1c0,1.2,0.4,2.3,1.3,3.1l8.7,8.7c0.8,0.8,1.9,1.3,3,1.3h0h0
	c1.1,0,2.2-0.4,3-1.3l8.5-8.5c1.7-1.7,1.8-4.3,0.3-6c-0.8-0.9-1.9-1.4-3.1-1.4c-1.2,0-2.3,0.4-3.1,1.3l-0.3,0.3
	c-0.3,0.3-0.6,0.2-0.7,0.1c-0.1,0-0.4-0.2-0.4-0.6c0-0.2,0.1-0.3,0.2-0.4L117.7,24.4L117.7,24.4z M105.8,38.4
	c0.9,0.4,1.8,0.2,2.5-0.5l0.3-0.3c0.5-0.5,1.2-0.8,2-0.8c0.7,0,1.4,0.3,1.9,0.9c0.9,1,0.8,2.7-0.2,3.8l-8.5,8.5
	c-0.3,0.3-0.7,0.5-1.1,0.7l0-2.2l8.4-8.4c0.3-0.3,0.3-0.8,0-1.2c-0.3-0.3-0.8-0.3-1.2,0l-7.3,7.3l0-11.6l12.8-12.8
	c0.3-0.3,0.3-0.8,0-1.2c-0.3-0.3-0.8-0.3-1.2,0l-11.6,11.6l0-12.5l7.6-7.6c0.3-0.3,0.3-0.8,0-1.2c-0.3-0.3-0.8-0.3-1.2,0l-6.4,6.4
	l0-11.1c0-0.4-0.4-0.8-0.8-0.8c-0.4,0-0.8,0.4-0.8,0.8l0,11.1l-6.4-6.4c-0.3-0.3-0.8-0.3-1.2,0c-0.3,0.3-0.3,0.8,0,1.2l7.6,7.6
	l0,12.5L89.3,20.7c-0.3-0.3-0.8-0.3-1.2,0c-0.3,0.3-0.3,0.8,0,1.2l12.8,12.8l0,11.6l-7.3-7.3c-0.3-0.3-0.8-0.3-1.2,0
	c-0.3,0.3-0.3,0.8,0,1.2l8.4,8.4l0,2.2c-0.4-0.1-0.8-0.3-1.1-0.7l-8.7-8.7c-0.5-0.5-0.8-1.2-0.8-1.9c0-0.7,0.3-1.4,0.9-1.9
	c0.5-0.4,1.1-0.6,1.7-0.6c0.7,0,1.5,0.3,2.1,0.9l0.2,0.2c0.7,0.7,1.6,0.8,2.5,0.5c0.9-0.4,1.4-1.2,1.4-2.1c0-0.6-0.2-1.2-0.7-1.6
	L86.8,23.2c-0.5-0.5-0.8-1.2-0.8-1.9c0-0.7,0.3-1.4,0.9-1.9c1-0.9,2.7-0.8,3.8,0.2l4.5,4.5c0.7,0.7,1.6,0.8,2.5,0.5
	c0.9-0.4,1.4-1.2,1.4-2.1l0-0.9c0-0.6-0.2-1.2-0.7-1.6L92,13.6c-0.5-0.5-0.8-1.2-0.8-1.9c0-0.7,0.3-1.4,0.9-1.9
	c1-0.9,2.7-0.8,3.8,0.2l1.7,1.7c0.2,0.2,0.6,0.3,0.9,0.2c0.3-0.1,0.5-0.4,0.5-0.8l0-4.6c0-0.7,0.3-1.5,0.9-2
	c0.6-0.5,1.3-0.8,2.1-0.7c1.3,0.1,2.4,1.4,2.4,2.8l0,4.5c0,0.3,0.2,0.6,0.5,0.8c0.3,0.1,0.7,0.1,0.9-0.2l1.9-1.9
	c0.5-0.5,1.2-0.8,2-0.8c0.7,0,1.4,0.3,1.9,0.9c0.9,1,0.8,2.7-0.2,3.8l-6.2,6.2c-0.4,0.4-0.7,1-0.7,1.6l0,0.9c0,0.9,0.5,1.7,1.4,2.1
	c0.9,0.4,1.8,0.2,2.5-0.5l4.6-4.6c0.5-0.5,1.2-0.8,2-0.8c0.7,0,1.4,0.3,1.9,0.9c0.9,1,0.8,2.7-0.2,3.8l-11.4,11.4
	c-0.4,0.4-0.7,1-0.7,1.6C104.4,37.3,104.9,38.1,105.8,38.4L105.8,38.4z"/>
<g>
	<path class="st1" d="M2.3,53.8L1.7,52c0.8,0,1.4-0.3,2-0.8c0.6-0.5,0.9-1.5,0.9-2.8V31.8l-2.1-0.1v-2.2H7v18.9
		C7,52,5.4,53.7,2.3,53.8z"/>
	<path class="st1" d="M22.6,52.5h-2.3v-1.2c-0.9,1.1-2.2,1.6-3.8,1.6c-4.1,0-6.2-2-6.2-6V36.1h2.4v10.8c0,2.5,1.3,3.8,3.8,3.8
		c2.5,0,3.7-1.3,3.7-3.8V36.1h2.4V52.5z"/>
	<path class="st1" d="M37.3,52.5H35v-1.2c-0.9,1.1-2.2,1.6-3.8,1.6c-4.1,0-6.2-2-6.2-6V36.1h2.4v10.8c0,2.5,1.3,3.8,3.8,3.8
		c2.5,0,3.7-1.3,3.7-3.8V36.1h2.4V52.5z"/>
	<path class="st1" d="M43.4,36.7c1-0.6,2.2-0.9,3.5-0.9c1.3,0,2.5,0.2,3.4,0.6c1.9,0.9,2.8,2.4,2.8,4.7v6.2c0,2.2-0.9,3.7-2.6,4.6
		c-1.3,0.7-2.7,1-4.3,1c-1.6,0-3.3-0.1-5.2-0.4v-23h2.4V36.7z M50.9,47.4v-5.9c0-1.1-0.3-1.9-0.9-2.5c-0.6-0.7-1.6-1-2.8-1l-1.6,0.2
		c-0.8,0.2-1.5,0.4-2.1,0.8v11.5c1.1,0.2,1.9,0.2,2.5,0.2s0.9,0,0.9,0c1.1,0,2-0.3,2.8-0.9C50.5,49.3,50.9,48.5,50.9,47.4z"/>
	<path class="st1" d="M58.5,48c0,1.9,1.1,2.8,3.3,2.8c1.4,0,2.8-0.4,4.5-1.3l0.9,1.9c-1.7,1-3.4,1.5-5.3,1.5c-3.8,0-5.7-1.6-5.7-4.8
		v-6.7c0-1.8,0.6-3.2,1.7-4.1c1.1-1,2.6-1.5,4.4-1.5s3.2,0.5,4.3,1.5s1.5,2.3,1.5,4.1v4.5l-9.5,0.5V48z M65.6,43.7v-2.5
		c0-1.2-0.4-2-1.1-2.5C63.8,38.2,62.9,38,62,38c-1,0-1.8,0.3-2.4,0.9c-0.7,0.6-1,1.5-1,2.6v2.6L65.6,43.7z"/>
	<path class="st1" d="M74.2,52.5h-2.4v-23h2.4V52.5z"/>
	<path class="st1" d="M82.1,30.6c0,0.4-0.1,0.7-0.4,1s-0.6,0.4-0.9,0.4s-0.7-0.1-1-0.4c-0.3-0.3-0.4-0.6-0.4-0.9s0.1-0.7,0.4-0.9
		c0.3-0.3,0.6-0.4,1-0.4s0.7,0.1,0.9,0.4S82.1,30.2,82.1,30.6z M81.9,52.5h-2.4V36.1h2.4V52.5z"/>
	<path class="st1" d="M128.9,52.5h-2.4V31.8h-5.3v-2.2h13.2v2.2h-5.5V52.5z"/>
	<path class="st1" d="M132.8,44.3c0-3.3,1.7-4.9,5-4.9c0.5,0,1,0,1.5,0.1c1.6,0.3,2.8,0.8,3.8,1.5c0-2.3-1.5-3.4-4.6-3.4l0.2-1.7
		c1.8,0,3.1,0.2,3.9,0.6c0.5,0.2,0.9,0.5,1.2,0.7c0.3,0.2,0.6,0.6,0.8,1c0.2,0.4,0.4,0.7,0.5,1c0.1,0.3,0.2,0.7,0.3,1.2
		c0.1,0.8,0.1,1.6,0.1,2.4v9.8c-2.3,0.2-4.1,0.3-5.5,0.3c-4.8,0-7.2-2-7.2-5.9V44.3z M143.1,50.5v-7.5c-1.5-0.8-3.1-1.2-4.8-1.4
		c-0.2,0-0.3,0-0.5,0c-0.7,0-1.3,0.2-1.8,0.6c-0.5,0.4-0.8,1.2-0.8,2.2V47c0,2.5,1.7,3.7,5.1,3.7C141.1,50.8,142.1,50.7,143.1,50.5z
		"/>
	<path class="st1" d="M159.3,37.4c1.9-1.1,3.6-1.6,5.3-1.6c1.6,0,2.8,0.5,3.7,1.5s1.4,2.3,1.4,3.8v11.4h-2.4V41.7
		c0-1.9-0.6-3-1.8-3.4c-0.5-0.1-0.8-0.2-1.2-0.2s-0.7,0-1.1,0s-1,0.2-1.7,0.5l-1,0.5c0.3,0.6,0.4,1.3,0.4,2.1v11.5h-2.4V41.7
		c0-1-0.2-1.9-0.7-2.5c-0.6-0.8-1.5-1.2-2.8-1.2s-2.4,0.3-3.5,1v13.5h-2.4V36.1h2.2l0,0.8c1.2-0.7,2.6-1.1,4.1-1.1
		C157,35.9,158.3,36.4,159.3,37.4z"/>
	<path class="st1" d="M183.5,37.4c1.9-1.1,3.6-1.6,5.3-1.6c1.6,0,2.8,0.5,3.7,1.5s1.4,2.3,1.4,3.8v11.4h-2.4V41.7
		c0-1.9-0.6-3-1.8-3.4c-0.5-0.1-0.8-0.2-1.2-0.2s-0.7,0-1.1,0s-1,0.2-1.7,0.5l-1,0.5c0.3,0.6,0.4,1.3,0.4,2.1v11.5h-2.4V41.7
		c0-1-0.2-1.9-0.7-2.5c-0.6-0.8-1.5-1.2-2.8-1.2s-2.4,0.3-3.5,1v13.5h-2.4V36.1h2.2l0,0.8c1.2-0.7,2.6-1.1,4.1-1.1
		C181.3,35.9,182.5,36.4,183.5,37.4z"/>
	<path class="st1" d="M199.2,48c0,1.9,1.1,2.8,3.3,2.8c1.4,0,2.8-0.4,4.5-1.3l0.9,1.9c-1.7,1-3.4,1.5-5.3,1.5
		c-3.8,0-5.7-1.6-5.7-4.8v-6.7c0-1.8,0.6-3.2,1.7-4.1c1.1-1,2.6-1.5,4.4-1.5s3.2,0.5,4.3,1.5s1.5,2.3,1.5,4.1v4.5l-9.5,0.5V48z
		 M206.3,43.7v-2.5c0-1.2-0.4-2-1.1-2.5c-0.7-0.5-1.6-0.7-2.5-0.7c-1,0-1.8,0.3-2.4,0.9c-0.7,0.6-1,1.5-1,2.6v2.6L206.3,43.7z"/>
	<path class="st1" d="M214,36.4c1-0.4,2.1-0.6,3.5-0.6c1.4,0,2.5,0.3,3.5,0.9v-7.2h2.4v23c-1.9,0.3-3.6,0.4-5.2,0.4s-3-0.3-4.3-1
		c-1.7-0.9-2.6-2.4-2.6-4.6v-6.2C211.2,38.9,212.2,37.3,214,36.4z M221,39c-1.1-0.6-2.4-0.9-3.7-0.9c-1.3,0-2.2,0.3-2.8,1
		c-0.6,0.7-0.9,1.5-0.9,2.5v5.8c0,1,0.4,1.8,1.1,2.4c0.8,0.6,1.8,0.9,2.9,0.9c1.2,0,2.3-0.1,3.4-0.3V39z"/>
	<path class="st1" d="M228.2,48c0,1.9,1.1,2.8,3.3,2.8c1.4,0,2.8-0.4,4.5-1.3l0.9,1.9c-1.7,1-3.4,1.5-5.3,1.5
		c-3.8,0-5.7-1.6-5.7-4.8v-6.7c0-1.8,0.6-3.2,1.7-4.1c1.1-1,2.6-1.5,4.4-1.5s3.2,0.5,4.3,1.5s1.5,2.3,1.5,4.1v4.5l-9.5,0.5V48z
		 M235.3,43.7v-2.5c0-1.2-0.4-2-1.1-2.5c-0.7-0.5-1.6-0.7-2.5-0.7c-1,0-1.8,0.3-2.4,0.9c-0.7,0.6-1,1.5-1,2.6v2.6L235.3,43.7z"/>
</g>
</svg>
