<?xml version="1.0" encoding="UTF-8"?>
<svg width="239px" height="152px" viewBox="0 0 239 152" version="1.1" xmlns="http://www.w3.org/2000/svg" xmlns:xlink="http://www.w3.org/1999/xlink">
    <!-- Generator: Sketch 55.2 (78181) - https://sketchapp.com -->
    <title>logo</title>
    <desc>Created with Sketch.</desc>
    <g id="Page-1" stroke="none" stroke-width="1" fill="none" fill-rule="evenodd">
        <g id="logo" fill-rule="nonzero">
            <g id="logo-notag">
                <path d="M73.4,42.2 C73.4,40.3 72,38.7 70.1,38.6 C69.1,38.5 68.2,38.9 67.5,39.5 C66.8,40.2 66.4,41.1 66.4,42 L66.4,47.3 C66.4,47.6 66.2,47.7 66.1,47.8 C66,47.8 65.8,47.9 65.5,47.7 L65,47.2 C65,47.1 65,46.9 65,46.8 L65,39.7 C65,37.8 63.6,36.2 61.7,36.1 C60.7,36 59.8,36.4 59.1,37 C58.4,37.7 58,38.6 58,39.5 L58,40.1 L56.6,38.7 C55.3,37.4 53.2,37.3 51.9,38.4 C51.1,39 50.7,39.9 50.6,40.9 C50.6,41.9 50.9,42.8 51.6,43.5 L53.1,45 L52.7,45 C50.8,45 49.2,46.4 49.1,48.3 C49,49.3 49.4,50.2 50,50.9 C50.7,51.6 51.6,52 52.5,52 L59.8,52 C59.9,52 60.1,52.1 60.2,52.1 L60.7,52.6 C60.9,52.8 60.8,53.1 60.8,53.2 C60.8,53.3 60.6,53.5 60.3,53.5 L55.2,53.5 C53.3,53.5 51.7,54.9 51.6,56.8 C51.5,57.8 51.9,58.7 52.5,59.4 C53.2,60.1 54.1,60.5 55,60.5 L68.2,60.5 C68.3,60.5 68.5,60.6 68.6,60.6 C68.8,60.8 68.7,61.1 68.7,61.2 C68.7,61.3 68.5,61.5 68.2,61.5 L68,61.5 C66.1,61.5 64.5,62.9 64.4,64.8 C64.3,65.8 64.7,66.7 65.3,67.4 C66,68.1 66.9,68.5 67.8,68.5 L77.7,68.5 C78.6,68.5 79.5,68.1 80.1,67.5 L80.1,67.5 L80.1,67.5 C80.8,66.8 81.1,66 81.1,65.1 L81.1,55.3 C81.1,53.4 79.7,51.8 77.8,51.7 C76.8,51.6 75.9,52 75.2,52.6 C74.5,53.3 74.1,54.2 74.1,55.1 L74.1,55.4 C74.1,55.7 73.9,55.8 73.8,55.9 C73.7,55.9 73.5,56 73.2,55.8 C73.1,55.7 73.1,55.6 73.1,55.4 L73.4,42.2 L73.4,42.2 Z M74.6,56.9 C75.3,56.6 75.7,56 75.7,55.2 L75.7,54.9 C75.7,54.3 75.9,53.8 76.4,53.3 C76.8,52.9 77.4,52.7 78,52.7 C79.1,52.8 80,53.8 80,55 L80,64.8 C80,65.1 79.9,65.5 79.8,65.8 L78.5,64.5 L78.5,54.8 C78.5,54.4 78.2,54.1 77.8,54.1 C77.4,54.1 77.1,54.4 77.1,54.8 L77.1,63.1 L70.5,56.5 L70.5,41.9 C70.5,41.5 70.2,41.2 69.8,41.2 C69.4,41.2 69.1,41.5 69.1,41.9 L69.1,55.2 L62,48.1 L62,39.4 C62,39 61.7,38.7 61.3,38.7 C60.9,38.7 60.6,39 60.6,39.4 L60.6,46.7 L54.3,40.4 C54,40.1 53.6,40.1 53.4,40.4 C53.1,40.7 53.1,41.1 53.4,41.3 L59.7,47.6 L52.4,47.6 C52,47.6 51.7,47.9 51.7,48.3 C51.7,48.7 52,49 52.4,49 L61.1,49 L68.2,56.1 L54.9,56.1 C54.5,56.1 54.2,56.4 54.2,56.8 C54.2,57.2 54.5,57.5 54.9,57.5 L69.5,57.5 L76.1,64.1 L67.8,64.1 C67.4,64.1 67.1,64.4 67.1,64.8 C67.1,65.2 67.4,65.5 67.8,65.5 L77.5,65.5 L78.8,66.8 C78.5,67 78.2,67 77.8,67 L68,67 C67.4,67 66.9,66.8 66.4,66.3 C66,65.9 65.8,65.3 65.8,64.7 C65.8,64.2 66.1,63.7 66.4,63.4 C66.8,63 67.4,62.7 68.1,62.7 L68.3,62.7 C69.1,62.7 69.7,62.3 70,61.6 C70.3,60.9 70.1,60.1 69.6,59.6 C69.3,59.3 68.8,59.1 68.3,59.1 L55.1,59.1 C54.5,59.1 54,58.9 53.5,58.4 C53.1,58 52.9,57.4 52.9,56.8 C53,55.7 54,54.8 55.2,54.8 L60.3,54.8 C61.1,54.8 61.7,54.4 62,53.7 C62.3,53 62.1,52.2 61.6,51.7 L61.1,51.2 C60.8,50.9 60.3,50.7 59.8,50.7 L52.5,50.7 C51.9,50.7 51.4,50.5 50.9,50 C50.5,49.6 50.3,49 50.3,48.4 C50.4,47.3 51.4,46.4 52.6,46.4 L54.6,46.4 C54.9,46.4 55.1,46.2 55.2,46 C55.3,45.8 55.2,45.5 55.1,45.3 L52.4,42.6 C52,42.2 51.7,41.6 51.8,41 C51.8,40.4 52.1,39.8 52.6,39.4 C53.4,38.7 54.7,38.8 55.6,39.6 L58.2,42.2 C58.4,42.4 58.7,42.4 58.9,42.3 C59.1,42.2 59.3,42 59.3,41.7 L59.3,39.5 C59.3,38.9 59.5,38.4 60,37.9 C60.4,37.5 61,37.3 61.6,37.3 C62.7,37.4 63.6,38.4 63.6,39.6 L63.6,46.7 C63.6,47.2 63.8,47.6 64.1,48 L64.6,48.5 C65.1,49 65.9,49.2 66.6,48.9 C67.3,48.6 67.7,48 67.7,47.2 L67.7,41.9 C67.7,41.3 67.9,40.8 68.4,40.3 C68.8,39.9 69.4,39.7 70,39.7 C71.1,39.8 72,40.8 72,42 L72,55.1 C72,55.6 72.2,56 72.5,56.4 C73.2,57.1 73.9,57.2 74.6,56.9 L74.6,56.9 Z" id="Shape" fill="#B35F49"></path>
                <path d="M63,72.5 C61.6,71.1 59.5,71 58.1,72.3 C57.4,72.9 57,73.8 57,74.8 C57,75.8 57.3,76.7 58,77.3 L61.7,81 C61.9,81.2 61.8,81.5 61.8,81.6 C61.8,81.7 61.6,81.9 61.3,81.9 L60.6,81.9 C60.5,81.9 60.3,81.8 60.2,81.8 L55.2,76.8 C53.8,75.4 51.7,75.3 50.3,76.6 C49.6,77.2 49.2,78.1 49.2,79.1 C49.2,80.1 49.5,81 50.2,81.6 L50.6,82 L48.6,82 C46.8,82 45.2,83.4 45,85.1 C44.9,86.1 45.2,87 45.9,87.8 C46.6,88.5 47.5,88.9 48.5,88.9 L50.7,88.9 L50.4,89.2 C49,90.6 48.9,92.7 50.2,94.1 C50.8,94.8 51.7,95.2 52.7,95.2 C53.7,95.2 54.6,94.9 55.2,94.2 L60.4,89 C60.5,88.9 60.6,88.9 60.8,88.9 L61.5,88.9 C61.8,88.9 61.9,89.1 62,89.2 C62,89.3 62.1,89.5 61.9,89.8 L58.3,93.4 C56.9,94.8 56.8,96.9 58.1,98.3 C58.7,99 59.6,99.4 60.6,99.4 C61.6,99.4 62.5,99.1 63.1,98.4 L72.5,89 C72.6,88.9 72.7,88.9 72.9,88.9 C73.2,88.9 73.3,89.1 73.4,89.2 C73.5,89.3 73.5,89.5 73.3,89.8 L73.2,89.9 C71.8,91.3 71.7,93.4 73,94.8 C73.6,95.5 74.5,95.9 75.5,95.9 C76.5,95.9 77.4,95.6 78,94.9 L85,87.9 C85.7,87.2 86,86.4 86,85.5 L86,85.5 L86,85.5 C86,84.6 85.6,83.7 85,83.1 L77.7,76 C76.3,74.6 74.2,74.5 72.8,75.8 C72.1,76.4 71.7,77.3 71.7,78.3 C71.7,79.3 72,80.2 72.7,80.8 L73,81 C73.2,81.2 73.1,81.5 73.1,81.6 C73.1,81.7 72.9,81.9 72.6,81.9 C72.5,81.9 72.3,81.8 72.2,81.8 L63,72.5 L63,72.5 Z M74.3,82.1 C74.6,81.4 74.4,80.6 73.9,80.1 L73.7,79.9 C73.3,79.5 73.1,78.9 73.1,78.3 C73.1,77.7 73.4,77.2 73.8,76.8 C74.6,76 76,76.1 76.9,77 L83.8,83.9 C84,84.1 84.2,84.4 84.3,84.8 L82.5,84.8 L75.7,78 C75.4,77.7 75,77.7 74.8,78 C74.5,78.3 74.5,78.7 74.8,78.9 L80.7,84.8 L71.3,84.8 L60.9,74.4 C60.6,74.1 60.2,74.1 60,74.4 C59.7,74.7 59.7,75.1 60,75.3 L69.4,84.7 L59.3,84.7 L53.2,78.6 C52.9,78.3 52.5,78.3 52.3,78.6 C52,78.9 52,79.3 52.3,79.5 L57.5,84.7 L48.6,84.7 C48.2,84.7 47.9,85 47.9,85.4 C47.9,85.8 48.2,86.1 48.6,86.1 L57.5,86.1 L52.3,91.3 C52,91.6 52,92 52.3,92.2 C52.6,92.5 53,92.5 53.2,92.2 L59.3,86.1 L69.4,86.1 L60,95.4 C59.7,95.7 59.7,96.1 60,96.3 C60.3,96.6 60.7,96.6 60.9,96.3 L71.2,86 L80.6,86 L74.7,91.9 C74.4,92.2 74.4,92.6 74.7,92.8 C75,93.1 75.4,93.1 75.6,92.8 L82.4,86 L84.2,86 C84.1,86.3 83.9,86.6 83.7,86.9 L76.7,93.9 C76.3,94.3 75.7,94.5 75.1,94.5 C74.5,94.5 74,94.2 73.6,93.8 C73.3,93.4 73.1,92.9 73.1,92.4 C73.1,91.8 73.3,91.2 73.8,90.7 L73.9,90.6 C74.4,90.1 74.6,89.3 74.3,88.6 C74,87.9 73.4,87.5 72.6,87.5 C72.1,87.5 71.7,87.7 71.3,88 L62,97.4 C61.6,97.8 61,98 60.4,98 C59.8,98 59.3,97.7 58.9,97.3 C58.1,96.5 58.2,95.1 59.1,94.2 L62.7,90.6 C63.2,90.1 63.4,89.3 63.1,88.6 C62.8,87.9 62.2,87.5 61.4,87.5 L60.7,87.5 C60.2,87.5 59.8,87.7 59.4,88 L54.2,93.2 C53.8,93.6 53.2,93.8 52.6,93.8 C52,93.8 51.5,93.5 51.1,93.1 C50.3,92.3 50.4,90.9 51.3,90 L52.7,88.6 C52.9,88.4 52.9,88.1 52.8,87.9 C52.7,87.7 52.5,87.5 52.2,87.5 L48.5,87.5 C47.9,87.5 47.3,87.2 46.9,86.8 C46.5,86.3 46.3,85.8 46.4,85.1 C46.5,84 47.5,83.2 48.7,83.2 L52.3,83.2 C52.6,83.2 52.8,83 52.9,82.8 C53,82.6 52.9,82.3 52.8,82.1 L51.3,80.6 C50.9,80.2 50.7,79.6 50.7,79 C50.7,78.4 51,77.9 51.4,77.5 C52.2,76.7 53.6,76.8 54.5,77.7 L59.5,82.7 C59.8,83 60.3,83.2 60.8,83.2 L61.5,83.2 C62.3,83.2 62.9,82.8 63.2,82.1 C63.5,81.4 63.3,80.6 62.8,80.1 L59.1,76.4 C58.7,76 58.5,75.4 58.5,74.8 C58.5,74.2 58.8,73.7 59.2,73.3 C60,72.5 61.4,72.6 62.3,73.5 L71.6,82.8 C71.9,83.1 72.4,83.3 72.9,83.3 C73.4,83.2 74,82.8 74.3,82.1 L74.3,82.1 Z" id="Shape" fill="#F79A10"></path>
                <path d="M137.9,96.1 C139.3,97.5 141.4,97.6 142.8,96.3 C143.5,95.7 143.9,94.8 143.9,93.8 C143.9,92.8 143.6,91.9 142.9,91.3 L139.2,87.6 C139,87.4 139.1,87.1 139.1,87 C139.1,86.9 139.3,86.7 139.6,86.7 L140.3,86.7 C140.4,86.7 140.6,86.8 140.7,86.8 L145.7,91.8 C147.1,93.2 149.2,93.3 150.6,92 C151.3,91.4 151.7,90.5 151.7,89.5 C151.7,88.5 151.4,87.6 150.7,87 L150.3,86.6 L152.3,86.6 C154.1,86.6 155.7,85.2 155.9,83.5 C156,82.5 155.7,81.6 155,80.8 C154.3,80.1 153.4,79.7 152.4,79.7 L150.2,79.7 L150.5,79.4 C151.9,78 152,75.9 150.7,74.5 C150.1,73.8 149.2,73.4 148.2,73.4 C147.2,73.4 146.3,73.7 145.7,74.4 L140.5,79.6 C140.4,79.7 140.3,79.7 140.1,79.7 L139.4,79.7 C139.1,79.7 139,79.5 138.9,79.4 C138.9,79.3 138.8,79.1 139,78.8 L142.6,75.2 C144,73.8 144.1,71.7 142.8,70.3 C142.2,69.6 141.3,69.2 140.3,69.2 C139.3,69.2 138.4,69.5 137.8,70.2 L128.4,79.6 C128.3,79.7 128.2,79.7 128,79.7 C127.7,79.7 127.6,79.5 127.5,79.4 C127.4,79.3 127.4,79.1 127.6,78.8 L127.7,78.7 C129.1,77.3 129.2,75.2 127.9,73.8 C127.3,73.1 126.4,72.7 125.4,72.7 C124.4,72.7 123.5,73 122.9,73.7 L115.9,80.7 C115.2,81.4 114.9,82.2 114.9,83.1 L114.9,83.1 L114.9,83.1 C114.9,84 115.3,84.9 115.9,85.5 L122.8,92.4 C124.2,93.8 126.3,93.9 127.7,92.6 C128.4,92 128.8,91.1 128.8,90.1 C128.8,89.1 128.5,88.2 127.8,87.6 L127.6,87.4 C127.4,87.2 127.5,86.9 127.5,86.8 C127.5,86.7 127.7,86.5 128,86.5 C128.1,86.5 128.3,86.6 128.4,86.6 L137.9,96.1 L137.9,96.1 Z M126.6,86.5 C126.3,87.2 126.5,88 127,88.5 L127.2,88.7 C127.6,89.1 127.8,89.7 127.8,90.3 C127.8,90.9 127.5,91.4 127.1,91.8 C126.3,92.6 124.9,92.5 124,91.6 L117.1,84.7 C116.9,84.5 116.7,84.2 116.6,83.8 L118.4,83.8 L125.2,90.6 C125.5,90.9 125.9,90.9 126.1,90.6 C126.4,90.3 126.4,89.9 126.1,89.7 L120.2,83.8 L129.6,83.8 L140,94.2 C140.3,94.5 140.7,94.5 140.9,94.2 C141.2,93.9 141.2,93.5 140.9,93.3 L131.5,83.9 L141.6,83.9 L147.7,90 C148,90.3 148.4,90.3 148.6,90 C148.9,89.7 148.9,89.3 148.6,89.1 L143.4,83.9 L152.3,83.9 C152.7,83.9 153,83.6 153,83.2 C153,82.8 152.7,82.5 152.3,82.5 L143.4,82.5 L148.6,77.3 C148.9,77 148.9,76.6 148.6,76.4 C148.3,76.1 147.9,76.1 147.7,76.4 L141.6,82.5 L131.5,82.5 L140.9,73.1 C141.2,72.8 141.2,72.4 140.9,72.2 C140.6,71.9 140.2,71.9 140,72.2 L129.7,82.5 L120.3,82.5 L126.2,76.6 C126.5,76.3 126.5,75.9 126.2,75.7 C125.9,75.4 125.5,75.4 125.3,75.7 L118.5,82.5 L116.7,82.5 C116.8,82.2 117,81.9 117.2,81.6 L124.2,74.6 C124.6,74.2 125.2,74 125.8,74 C126.4,74 126.9,74.3 127.3,74.7 C127.6,75.1 127.8,75.6 127.8,76.1 C127.8,76.7 127.6,77.3 127.1,77.8 L127,78 C126.5,78.5 126.3,79.3 126.6,80 C126.9,80.7 127.5,81.1 128.3,81.1 C128.8,81.1 129.2,80.9 129.6,80.6 L139,71.2 C139.4,70.8 140,70.6 140.6,70.6 C141.2,70.6 141.7,70.9 142.1,71.3 C142.9,72.1 142.8,73.5 141.9,74.4 L138.3,78 C137.8,78.5 137.6,79.3 137.9,80 C138.2,80.7 138.8,81.1 139.6,81.1 L140.3,81.1 C140.8,81.1 141.2,80.9 141.6,80.6 L146.8,75.4 C147.2,75 147.8,74.8 148.4,74.8 C149,74.8 149.5,75.1 149.9,75.5 C150.7,76.3 150.6,77.7 149.7,78.6 L148.3,80 C148.1,80.2 148.1,80.5 148.2,80.7 C148.3,80.9 148.5,81.1 148.8,81.1 L152.5,81.1 C153.1,81.1 153.7,81.4 154.1,81.8 C154.5,82.3 154.7,82.8 154.6,83.5 C154.5,84.6 153.5,85.4 152.3,85.4 L148.7,85.4 C148.4,85.4 148.2,85.6 148.1,85.8 C148,86 148.1,86.3 148.2,86.5 L149.7,88 C150.1,88.4 150.3,89 150.3,89.6 C150.3,90.2 150,90.7 149.6,91.1 C148.8,91.9 147.4,91.8 146.5,90.9 L141.5,85.9 C141.2,85.6 140.7,85.4 140.2,85.4 L139.5,85.4 C138.7,85.4 138.1,85.8 137.8,86.5 C137.5,87.2 137.7,88 138.2,88.5 L141.9,92.2 C142.3,92.6 142.5,93.2 142.5,93.8 C142.5,94.4 142.2,94.9 141.8,95.3 C141,96.1 139.6,96 138.7,95.1 L129.4,85.8 C129.1,85.5 128.6,85.3 128.1,85.3 C127.5,85.4 126.9,85.8 126.6,86.5 L126.6,86.5 Z" id="Shape" fill="#F79A10"></path>
                <path d="M114,54.5 C115.4,53.1 115.5,51 114.2,49.6 C113.6,48.9 112.7,48.5 111.7,48.5 C110.7,48.5 109.8,48.8 109.2,49.5 L105.5,53.2 C105.3,53.4 105,53.3 104.9,53.3 C104.8,53.3 104.6,53.1 104.6,52.8 L104.6,52.1 C104.6,52 104.7,51.8 104.7,51.7 L109.7,46.7 C111.1,45.3 111.2,43.2 109.9,41.8 C109.3,41.1 108.4,40.7 107.4,40.7 C106.4,40.7 105.5,41 104.9,41.7 L104.5,42.1 L104.5,40.1 C104.5,38.3 103.1,36.7 101.4,36.5 C100.4,36.4 99.5,36.7 98.7,37.4 C98,38.1 97.6,39 97.6,40 L97.6,42.2 L97.3,41.9 C95.9,40.5 93.8,40.4 92.4,41.7 C91.7,42.3 91.3,43.2 91.3,44.2 C91.3,45.2 91.6,46.1 92.3,46.7 L97.5,51.9 C97.6,52 97.6,52.1 97.6,52.3 L97.6,53 C97.6,53.3 97.4,53.4 97.3,53.5 C97.2,53.5 97,53.6 96.7,53.4 L93.1,49.8 C91.7,48.4 89.6,48.3 88.2,49.6 C87.5,50.2 87.1,51.1 87.1,52.1 C87.1,53.1 87.4,54 88.1,54.6 L97.5,64 C97.6,64.1 97.6,64.2 97.6,64.4 C97.6,64.7 97.4,64.8 97.3,64.9 C97.2,64.9 97,65 96.7,64.8 L96.6,64.7 C95.2,63.3 93.1,63.2 91.7,64.5 C91,65.1 90.6,66 90.6,67 C90.6,68 90.9,68.9 91.6,69.5 L98.6,76.5 C99.3,77.2 100.1,77.5 101,77.5 L101,77.5 L101,77.5 C101.9,77.5 102.8,77.1 103.4,76.5 L110.3,69.6 C111.7,68.2 111.8,66.1 110.5,64.7 C109.9,64 109,63.6 108,63.6 C107,63.6 106.1,63.9 105.5,64.6 L105.3,64.8 C105.1,65 104.8,64.9 104.7,64.9 C104.6,64.9 104.4,64.7 104.4,64.4 C104.4,64.3 104.5,64.1 104.5,64 L114,54.5 L114,54.5 Z M104.4,65.8 C105.1,66.1 105.9,65.9 106.4,65.4 L106.6,65.2 C107,64.8 107.6,64.6 108.2,64.6 C108.8,64.6 109.3,64.9 109.7,65.3 C110.5,66.1 110.4,67.5 109.5,68.4 L102.6,75.3 C102.4,75.5 102.1,75.7 101.7,75.8 L101.7,74 L108.5,67.2 C108.8,66.9 108.8,66.5 108.5,66.3 C108.2,66 107.8,66 107.6,66.3 L101.7,72.2 L101.7,62.8 L112,52.5 C112.3,52.2 112.3,51.8 112,51.6 C111.7,51.3 111.3,51.3 111.1,51.6 L101.7,61 L101.7,50.9 L107.8,44.8 C108.1,44.5 108.1,44.1 107.8,43.9 C107.5,43.6 107.1,43.6 106.9,43.9 L101.7,49.1 L101.7,40.2 C101.7,39.8 101.4,39.5 101,39.5 C100.6,39.5 100.3,39.8 100.3,40.2 L100.3,49.1 L95.1,43.9 C94.8,43.6 94.4,43.6 94.2,43.9 C93.9,44.2 93.9,44.6 94.2,44.8 L100.3,50.9 L100.3,61 L90.9,51.6 C90.6,51.3 90.2,51.3 90,51.6 C89.7,51.9 89.7,52.3 90,52.5 L100.3,62.8 L100.3,72.2 L94.4,66.3 C94.1,66 93.7,66 93.5,66.3 C93.2,66.6 93.2,67 93.5,67.2 L100.3,74 L100.3,75.8 C100,75.7 99.7,75.5 99.4,75.3 L92.4,68.3 C92,67.9 91.8,67.3 91.8,66.7 C91.8,66.1 92.1,65.6 92.5,65.2 C92.9,64.9 93.4,64.7 93.9,64.7 C94.5,64.7 95.1,64.9 95.6,65.4 L95.7,65.5 C96.2,66 97,66.2 97.7,65.9 C98.4,65.6 98.8,65 98.8,64.2 C98.8,63.7 98.6,63.3 98.3,62.9 L88.9,53.5 C88.5,53.1 88.3,52.5 88.3,51.9 C88.3,51.3 88.6,50.8 89,50.4 C89.8,49.6 91.2,49.7 92.1,50.6 L95.7,54.2 C96.2,54.7 97,54.9 97.7,54.6 C98.4,54.3 98.8,53.7 98.8,52.9 L98.8,52.2 C98.8,51.7 98.6,51.3 98.3,50.9 L93.1,45.7 C92.7,45.3 92.5,44.7 92.5,44.1 C92.5,43.5 92.8,43 93.2,42.6 C94,41.8 95.4,41.9 96.3,42.8 L97.7,44.2 C97.9,44.4 98.2,44.4 98.4,44.3 C98.6,44.2 98.8,44 98.8,43.7 L98.8,40 C98.8,39.4 99.1,38.8 99.5,38.4 C100,38 100.5,37.8 101.2,37.9 C102.3,38 103.1,39 103.1,40.2 L103.1,43.8 C103.1,44.1 103.3,44.3 103.5,44.4 C103.7,44.5 104,44.4 104.2,44.3 L105.7,42.8 C106.1,42.4 106.7,42.2 107.3,42.2 C107.9,42.2 108.4,42.5 108.8,42.9 C109.6,43.7 109.5,45.1 108.6,46 L103.6,51 C103.3,51.3 103.1,51.8 103.1,52.3 L103.1,53 C103.1,53.8 103.5,54.4 104.2,54.7 C104.9,55 105.7,54.8 106.2,54.3 L109.9,50.6 C110.3,50.2 110.9,50 111.5,50 C112.1,50 112.6,50.3 113,50.7 C113.8,51.5 113.7,52.9 112.8,53.8 L103.5,63.1 C103.2,63.4 103,63.9 103,64.4 C103.3,64.9 103.7,65.5 104.4,65.8 L104.4,65.8 Z" id="Shape" fill="#B35F49"></path>
                <path d="M148.5,60.2 C150.4,60.2 152,58.8 152.1,56.9 C152.2,55.9 151.8,55 151.2,54.3 C150.5,53.6 149.6,53.2 148.7,53.2 L143.4,53.2 C143.1,53.2 143,53 142.9,52.9 C142.9,52.8 142.8,52.6 143,52.3 L143.5,51.8 C143.6,51.7 143.7,51.7 143.9,51.7 L151,51.7 C152.9,51.7 154.5,50.3 154.6,48.4 C154.7,47.4 154.3,46.5 153.7,45.8 C153,45.1 152.1,44.7 151.2,44.7 L150.6,44.7 L152,43.3 C153.3,42 153.4,39.9 152.3,38.6 C151.7,37.8 150.8,37.4 149.8,37.3 C148.8,37.3 147.9,37.6 147.2,38.3 L145.7,39.8 L145.7,39.4 C145.7,37.5 144.3,35.9 142.4,35.8 C141.4,35.7 140.5,36.1 139.8,36.7 C139.1,37.4 138.7,38.3 138.7,39.2 L138.7,46.5 C138.7,46.6 138.6,46.8 138.6,46.9 L138.1,47.4 C137.9,47.6 137.6,47.5 137.5,47.5 C137.4,47.5 137.2,47.3 137.2,47 L137.2,41.9 C137.2,40 135.8,38.4 133.9,38.3 C132.9,38.2 132,38.6 131.3,39.2 C130.6,39.9 130.2,40.8 130.2,41.7 L130.2,54.9 C130.2,55 130.1,55.2 130.1,55.3 C129.9,55.5 129.6,55.4 129.5,55.4 C129.4,55.4 129.2,55.2 129.2,54.9 L129.2,54.7 C129.2,52.8 127.8,51.2 125.9,51.1 C124.9,51 124,51.4 123.3,52 C122.6,52.7 122.2,53.6 122.2,54.5 L122.2,64.4 C122.2,65.3 122.6,66.2 123.2,66.8 L123.2,66.8 L123.2,66.8 C123.9,67.5 124.7,67.8 125.6,67.8 L135.4,67.8 C137.3,67.8 138.9,66.4 139,64.5 C139.1,63.5 138.7,62.6 138.1,61.9 C137.4,61.2 136.5,60.8 135.6,60.8 L135.3,60.8 C135,60.8 134.9,60.6 134.8,60.5 C134.8,60.4 134.7,60.2 134.9,59.9 C135,59.8 135.1,59.8 135.3,59.8 L148.5,60.2 L148.5,60.2 Z M133.7,61.4 C134,62.1 134.6,62.5 135.4,62.5 L135.7,62.5 C136.3,62.5 136.8,62.7 137.3,63.2 C137.7,63.6 137.9,64.2 137.9,64.8 C137.8,65.9 136.8,66.8 135.6,66.8 L125.8,66.8 C125.5,66.8 125.1,66.7 124.8,66.6 L126.1,65.3 L135.8,65.3 C136.2,65.3 136.5,65 136.5,64.6 C136.5,64.2 136.2,63.9 135.8,63.9 L127.5,63.9 L134.1,57.3 L148.7,57.3 C149.1,57.3 149.4,57 149.4,56.6 C149.4,56.2 149.1,55.9 148.7,55.9 L135.4,55.9 L142.5,48.8 L151.2,48.8 C151.6,48.8 151.9,48.5 151.9,48.1 C151.9,47.7 151.6,47.4 151.2,47.4 L143.9,47.4 L150.2,41.1 C150.5,40.8 150.5,40.4 150.2,40.2 C149.9,39.9 149.5,39.9 149.3,40.2 L143,46.5 L143,39.2 C143,38.8 142.7,38.5 142.3,38.5 C141.9,38.5 141.6,38.8 141.6,39.2 L141.6,47.9 L134.5,55 L134.5,41.7 C134.5,41.3 134.2,41 133.8,41 C133.4,41 133.1,41.3 133.1,41.7 L133.1,56.3 L126.5,62.9 L126.5,54.6 C126.5,54.2 126.2,53.9 125.8,53.9 C125.4,53.9 125.1,54.2 125.1,54.6 L125.1,64.3 L123.8,65.6 C123.6,65.3 123.6,65 123.6,64.6 L123.6,54.7 C123.6,54.1 123.8,53.6 124.3,53.1 C124.7,52.7 125.3,52.5 125.9,52.5 C126.4,52.5 126.9,52.8 127.2,53.1 C127.6,53.5 127.9,54.1 127.9,54.8 L127.9,55 C127.9,55.8 128.3,56.4 129,56.7 C129.7,57 130.5,56.8 131,56.3 C131.3,56 131.5,55.5 131.5,55 L131.5,41.8 C131.5,41.2 131.7,40.7 132.2,40.2 C132.6,39.8 133.2,39.6 133.8,39.6 C134.9,39.7 135.8,40.7 135.8,41.9 L135.8,47 C135.8,47.8 136.2,48.4 136.9,48.7 C137.6,49 138.4,48.8 138.9,48.3 L139.4,47.8 C139.7,47.5 139.9,47 139.9,46.5 L139.9,39.2 C139.9,38.6 140.1,38.1 140.6,37.6 C141,37.2 141.6,37 142.2,37 C143.3,37.1 144.2,38.1 144.2,39.3 L144.2,41.3 C144.2,41.6 144.4,41.8 144.6,41.9 C144.8,42 145.1,41.9 145.3,41.8 L148,39.1 C148.4,38.7 149,38.4 149.6,38.5 C150.2,38.5 150.8,38.8 151.2,39.3 C151.9,40.1 151.8,41.4 151,42.3 L148.4,44.9 C148.2,45.1 148.2,45.4 148.3,45.6 C148.4,45.8 148.6,46 148.9,46 L151.1,46 C151.7,46 152.2,46.2 152.7,46.7 C153.1,47.1 153.3,47.7 153.3,48.3 C153.2,49.4 152.2,50.3 151,50.3 L143.9,50.3 C143.4,50.3 143,50.5 142.6,50.8 L142.1,51.3 C141.6,51.8 141.4,52.6 141.7,53.3 C142,54 142.6,54.4 143.4,54.4 L148.7,54.4 C149.3,54.4 149.8,54.6 150.3,55.1 C150.7,55.5 150.9,56.1 150.9,56.7 C150.8,57.8 149.8,58.7 148.6,58.7 L135.5,58.7 C135,58.7 134.6,58.9 134.2,59.2 C133.6,59.9 133.4,60.7 133.7,61.4 L133.7,61.4 Z" id="Shape" fill="#B35F49"></path>
                <path d="M132.6,34.3 C134.1,34.3 135.3,33.2 135.4,31.8 C135.4,31.1 135.2,30.4 134.7,29.8 C134.2,29.3 133.5,29 132.8,29 L128.8,29 C128.6,29 128.5,28.8 128.4,28.8 C128.4,28.7 128.3,28.5 128.5,28.4 L128.9,28 C129,27.9 129.1,27.9 129.2,27.9 L134.6,27.9 C136.1,27.9 137.3,26.8 137.4,25.4 C137.4,24.7 137.2,24 136.7,23.4 C136.2,22.9 135.5,22.6 134.8,22.6 L134.4,22.6 L135.5,21.5 C136.5,20.5 136.6,18.9 135.7,17.9 C135.2,17.3 134.5,17 133.8,16.9 C133.1,16.9 132.3,17.1 131.8,17.7 L130.6,18.9 L130.6,18.6 C130.6,17.1 129.5,15.9 128.1,15.8 C127.4,15.8 126.7,16 126.1,16.5 C125.6,17 125.3,17.7 125.3,18.4 L125.3,24 C125.3,24.1 125.3,24.2 125.2,24.3 L124.8,24.7 C124.6,24.9 124.4,24.8 124.4,24.8 C124.3,24.8 124.2,24.7 124.2,24.4 L124.2,20.5 C124.2,19 123.1,17.8 121.7,17.7 C121,17.7 120.3,17.9 119.7,18.4 C119.2,18.9 118.9,19.6 118.9,20.3 L118.9,30.4 C118.9,30.5 118.9,30.6 118.8,30.7 C118.6,30.9 118.4,30.8 118.4,30.8 C118.3,30.8 118.2,30.7 118.2,30.4 L118.2,30.3 C118.2,28.8 117.1,27.6 115.7,27.5 C115,27.5 114.3,27.7 113.7,28.2 C113.2,28.7 112.9,29.4 112.9,30.1 L112.9,37.7 C112.9,38.4 113.2,39.1 113.7,39.6 L113.7,39.6 L113.7,39.6 C114.2,40.1 114.9,40.4 115.6,40.4 L123,40.4 C124.5,40.4 125.7,39.3 125.8,37.9 C125.8,37.2 125.6,36.5 125.1,35.9 C124.6,35.4 123.9,35.1 123.2,35.1 L122.9,35.1 C122.7,35.1 122.6,34.9 122.5,34.9 C122.5,34.8 122.4,34.6 122.6,34.5 C122.7,34.4 122.8,34.4 122.9,34.4 L132.6,34.3 L132.6,34.3 Z M121.3,35.2 C121.5,35.7 122,36.1 122.6,36.1 L122.9,36.1 C123.4,36.1 123.8,36.3 124.1,36.6 C124.4,36.9 124.6,37.4 124.5,37.8 C124.5,38.7 123.7,39.3 122.7,39.3 L115.3,39.3 C115,39.3 114.8,39.2 114.6,39.1 L115.6,38.1 L123,38.1 C123.3,38.1 123.5,37.9 123.5,37.6 C123.5,37.3 123.3,37.1 123,37.1 L116.6,37.1 L121.6,32.1 L132.7,32.1 C133,32.1 133.2,31.9 133.2,31.6 C133.2,31.3 133,31.1 132.7,31.1 L122.6,31.1 L128,25.7 L134.6,25.7 C134.9,25.7 135.1,25.5 135.1,25.2 C135.1,24.9 134.9,24.7 134.6,24.7 L129,24.7 L133.8,19.9 C134,19.7 134,19.4 133.8,19.2 C133.6,19 133.3,19 133.1,19.2 L128.3,24 L128.3,18.4 C128.3,18.1 128.1,17.9 127.8,17.9 C127.5,17.9 127.3,18.1 127.3,18.4 L127.3,25 L121.9,30.4 L121.9,20.3 C121.9,20 121.7,19.8 121.4,19.8 C121.1,19.8 120.9,20 120.9,20.3 L120.9,31.4 L115.9,36.4 L115.9,30 C115.9,29.7 115.7,29.5 115.4,29.5 C115.1,29.5 114.9,29.7 114.9,30 L114.9,37.4 L113.9,38.4 C113.8,38.2 113.7,37.9 113.7,37.7 L113.7,30.1 C113.7,29.6 113.9,29.2 114.2,28.9 C114.5,28.6 115,28.4 115.4,28.5 C115.8,28.5 116.1,28.7 116.4,29 C116.7,29.3 116.9,29.8 116.9,30.3 L116.9,30.4 C116.9,31 117.2,31.5 117.8,31.7 C118.3,31.9 118.9,31.8 119.3,31.4 C119.6,31.1 119.7,30.8 119.7,30.4 L119.7,20.3 C119.7,19.8 119.9,19.4 120.2,19.1 C120.5,18.8 121,18.6 121.4,18.7 C122.3,18.7 122.9,19.5 122.9,20.5 L122.9,24.4 C122.9,25 123.2,25.5 123.8,25.7 C124.3,25.9 124.9,25.8 125.3,25.4 L125.7,25 C126,24.7 126.1,24.4 126.1,24 L126.1,18.4 C126.1,17.9 126.3,17.5 126.6,17.2 C126.9,16.9 127.4,16.7 127.8,16.8 C128.7,16.8 129.3,17.6 129.3,18.6 L129.3,20.1 C129.3,20.3 129.4,20.5 129.6,20.6 C129.8,20.7 130,20.6 130.1,20.5 L132.1,18.5 C132.4,18.2 132.9,18 133.3,18 C133.8,18 134.2,18.2 134.5,18.6 C135,19.2 135,20.2 134.3,20.9 L132.3,22.9 C132.2,23 132.1,23.3 132.2,23.4 C132.3,23.6 132.5,23.7 132.7,23.7 L134.3,23.7 C134.8,23.7 135.2,23.9 135.5,24.2 C135.8,24.5 136,25 135.9,25.4 C135.9,26.3 135.1,26.9 134.1,26.9 L128.7,26.9 C128.3,26.9 128,27 127.7,27.3 L127.3,27.7 C126.9,28.1 126.8,28.7 127,29.2 C127.2,29.7 127.7,30.1 128.3,30.1 L132.3,30.1 C132.8,30.1 133.2,30.3 133.5,30.6 C133.8,30.9 134,31.4 133.9,31.8 C133.9,32.7 133.1,33.3 132.1,33.3 L122.1,33.3 C121.7,33.3 121.4,33.4 121.1,33.7 C121.2,34.1 121.1,34.7 121.3,35.2 L121.3,35.2 Z" id="Shape" fill="#F79A10"></path>
                <path d="M110.8,14.3 C111.8,13.3 111.9,11.6 111,10.6 C110.5,10.1 109.8,9.7 109.1,9.7 C108.4,9.7 107.7,10 107.2,10.5 L104.3,13.4 C104.1,13.6 103.9,13.5 103.9,13.5 C103.8,13.5 103.7,13.4 103.7,13.1 L103.7,12.6 C103.7,12.5 103.7,12.4 103.8,12.3 L107.6,8.5 C108.6,7.5 108.7,5.8 107.8,4.8 C107.3,4.3 106.6,3.9 105.9,3.9 C105.2,3.9 104.5,4.2 104,4.7 L103.6,5 L103.6,3.4 C103.6,2 102.6,0.8 101.2,0.7 C100.5,0.6 99.7,0.9 99.2,1.4 C98.7,1.9 98.3,2.6 98.3,3.3 L98.3,4.9 L98.1,4.7 C97.1,3.7 95.4,3.6 94.4,4.5 C93.9,5 93.5,5.7 93.5,6.4 C93.5,7.1 93.8,7.8 94.3,8.3 L98.2,12.2 C98.3,12.3 98.3,12.4 98.3,12.5 L98.3,13 C98.3,13.2 98.1,13.3 98.1,13.4 C98,13.4 97.8,13.5 97.7,13.3 L94.9,10.5 C93.9,9.5 92.2,9.4 91.2,10.3 C90.7,10.8 90.3,11.5 90.3,12.2 C90.3,12.9 90.6,13.6 91.1,14.1 L98.2,21.2 C98.3,21.3 98.3,21.4 98.3,21.5 C98.3,21.7 98.1,21.8 98.1,21.9 C98,21.9 97.8,22 97.7,21.8 L97.6,21.7 C96.6,20.7 94.9,20.6 93.9,21.5 C93.4,22 93,22.7 93,23.4 C93,24.1 93.3,24.8 93.8,25.3 L99.1,30.6 C99.6,31.1 100.3,31.4 101,31.4 L101,31.4 L101,31.4 C101.7,31.4 102.4,31.1 102.9,30.6 L108.2,25.3 C109.2,24.3 109.3,22.6 108.4,21.6 C107.9,21.1 107.2,20.7 106.5,20.7 C105.8,20.7 105.1,21 104.6,21.5 L104.4,21.7 C104.2,21.9 104,21.8 104,21.8 C103.9,21.8 103.8,21.7 103.8,21.4 C103.8,21.3 103.8,21.2 103.9,21.1 L110.8,14.3 L110.8,14.3 Z M103.5,22.9 C104,23.1 104.6,23 105,22.6 L105.2,22.4 C105.5,22.1 105.9,21.9 106.4,21.9 C106.9,21.9 107.3,22.1 107.6,22.4 C108.2,23 108.1,24.1 107.5,24.7 L102.2,30 C102,30.2 101.8,30.3 101.5,30.4 L101.5,29.1 L106.7,23.9 C106.9,23.7 106.9,23.4 106.7,23.2 C106.5,23 106.2,23 106,23.2 L101.5,27.7 L101.5,20.6 L109.4,12.7 C109.6,12.5 109.6,12.2 109.4,12 C109.2,11.8 108.9,11.8 108.7,12 L101.5,19.2 L101.5,11.5 L106.2,6.8 C106.4,6.6 106.4,6.3 106.2,6.1 C106,5.9 105.7,5.9 105.5,6.1 L101.6,10 L101.6,3.2 C101.6,2.9 101.4,2.7 101.1,2.7 C100.8,2.7 100.6,2.9 100.6,3.2 L100.6,10 L96.7,6.1 C96.4,6 96,6 95.8,6.2 C95.6,6.4 95.6,6.7 95.8,6.9 L100.5,11.6 L100.5,19.3 L93.4,12 C93.2,11.8 92.9,11.8 92.7,12 C92.5,12.2 92.5,12.5 92.7,12.7 L100.6,20.6 L100.6,27.7 L96,23.2 C95.8,23 95.5,23 95.3,23.2 C95.1,23.4 95.1,23.7 95.3,23.9 L100.5,29.1 L100.5,30.4 C100.3,30.3 100,30.2 99.8,30 L94.5,24.7 C94.2,24.4 94,24 94,23.6 C94,23.1 94.2,22.7 94.5,22.4 C94.8,22.1 95.2,22 95.6,22 C96.1,22 96.5,22.2 96.9,22.5 L97,22.6 C97.4,23 98,23.1 98.5,22.9 C99,22.7 99.4,22.2 99.4,21.6 C99.4,21.2 99.3,20.9 99,20.6 L91.9,13.5 C91.6,13.2 91.4,12.8 91.4,12.3 C91.4,11.8 91.6,11.4 91.9,11.1 C92.5,10.5 93.6,10.6 94.2,11.2 L97,14 C97.4,14.4 98,14.5 98.5,14.3 C99,14.1 99.4,13.6 99.4,13 L99.4,12.5 C99.4,12.1 99.3,11.8 99,11.5 L95,7.7 C94.7,7.4 94.5,7 94.5,6.5 C94.5,6 94.7,5.6 95,5.3 C95.6,4.7 96.7,4.8 97.3,5.4 L98.4,6.5 C98.5,6.6 98.8,6.7 98.9,6.6 C99.1,6.5 99.2,6.3 99.2,6.1 L99.2,3.2 C99.2,2.7 99.4,2.3 99.7,2 C100,1.7 100.5,1.5 101,1.6 C101.8,1.7 102.5,2.4 102.5,3.3 L102.5,6.1 C102.5,6.3 102.6,6.5 102.8,6.6 C103,6.7 103.2,6.6 103.3,6.5 L104.5,5.3 C104.8,5 105.2,4.8 105.7,4.8 C106.2,4.8 106.6,5 106.9,5.3 C107.5,5.9 107.4,7 106.8,7.6 L103,11.4 C102.7,11.7 102.6,12 102.6,12.4 L102.6,12.9 C102.6,13.5 102.9,14 103.5,14.2 C104,14.4 104.6,14.3 105,13.9 L107.9,11 C108.2,10.7 108.6,10.5 109.1,10.5 C109.6,10.5 110,10.7 110.3,11 C110.9,11.6 110.8,12.7 110.2,13.3 L103.2,20.3 C102.9,20.6 102.8,20.9 102.8,21.3 C102.6,22.2 103,22.7 103.5,22.9 L103.5,22.9 Z" id="Shape" fill="#B35F49"></path>
                <path d="M83.9,22.4 C83.9,21 82.9,19.8 81.5,19.8 C80.8,19.8 80.1,20 79.6,20.5 C79.1,21 78.8,21.6 78.8,22.3 L78.8,26.2 C78.8,26.4 78.6,26.5 78.6,26.5 C78.5,26.5 78.4,26.6 78.2,26.4 L77.9,26 C77.8,25.9 77.8,25.8 77.8,25.7 L77.8,20.5 C77.8,19.1 76.8,17.9 75.4,17.9 C74.7,17.9 74,18.1 73.5,18.6 C73,19.1 72.7,19.7 72.7,20.4 L72.7,20.8 L71.7,19.8 C70.8,18.9 69.2,18.8 68.3,19.6 C67.8,20.1 67.4,20.7 67.4,21.4 C67.4,22.1 67.6,22.8 68.1,23.3 L69.2,24.4 L68.9,24.4 C67.5,24.4 66.3,25.4 66.3,26.8 C66.3,27.5 66.5,28.2 67,28.7 C67.5,29.2 68.1,29.5 68.8,29.5 L74.1,29.5 C74.2,29.5 74.3,29.5 74.4,29.6 L74.8,30 C75,30.2 74.9,30.3 74.9,30.4 C74.9,30.5 74.8,30.6 74.6,30.6 L70.9,30.6 C69.5,30.6 68.3,31.6 68.3,33 C68.3,33.7 68.5,34.4 69,34.9 C69.5,35.4 70.1,35.7 70.8,35.7 L80.4,35.7 C80.5,35.7 80.6,35.7 80.7,35.8 C80.9,36 80.8,36.1 80.8,36.2 C80.8,36.3 80.7,36.4 80.5,36.4 L80.4,36.4 C79,36.4 77.8,37.4 77.8,38.8 C77.8,39.5 78,40.2 78.5,40.7 C79,41.2 79.6,41.5 80.3,41.5 L87.5,41.5 C88.2,41.5 88.8,41.2 89.3,40.8 L89.3,40.8 L89.3,40.8 C89.8,40.3 90,39.7 90,39 L90,31.9 C90,30.5 89,29.3 87.6,29.3 C86.9,29.3 86.2,29.5 85.7,30 C85.2,30.5 84.9,31.1 84.9,31.8 L84.9,32 C84.9,32.2 84.7,32.3 84.7,32.3 C84.7,32.3 84.5,32.4 84.3,32.2 C84.2,32.1 84.2,32 84.2,31.9 L83.9,22.4 L83.9,22.4 Z M84.8,33.1 C85.3,32.9 85.6,32.4 85.6,31.9 L85.6,31.7 C85.6,31.3 85.8,30.9 86.1,30.6 C86.4,30.3 86.8,30.2 87.3,30.2 C88.1,30.2 88.8,31 88.8,31.9 L88.8,39 C88.8,39.3 88.7,39.5 88.6,39.7 L87.7,38.8 L87.7,31.8 C87.7,31.5 87.5,31.3 87.2,31.3 C86.9,31.3 86.7,31.5 86.7,31.8 L86.7,37.9 L81.9,33.1 L81.9,22.5 C81.9,22.2 81.7,22 81.4,22 C81.1,22 80.9,22.2 80.9,22.5 L80.9,32.2 L75.7,27 L75.7,20.7 C75.7,20.4 75.5,20.2 75.2,20.2 C74.9,20.2 74.7,20.4 74.7,20.7 L74.7,26 L70.1,21.4 C69.9,21.2 69.6,21.2 69.4,21.4 C69.2,21.6 69.2,21.9 69.4,22.1 L74,26.7 L68.7,26.7 C68.4,26.7 68.2,26.9 68.2,27.2 C68.2,27.5 68.4,27.7 68.7,27.7 L75,27.7 L80.2,32.9 L70.5,32.9 C70.2,32.9 70,33.1 70,33.4 C70,33.7 70.2,33.9 70.5,33.9 L81.1,33.9 L85.9,38.7 L79.8,38.7 C79.5,38.7 79.3,38.9 79.3,39.2 C79.3,39.5 79.5,39.7 79.8,39.7 L86.8,39.7 L87.7,40.6 C87.5,40.7 87.2,40.8 87,40.8 L79.8,40.8 C79.4,40.8 79,40.6 78.7,40.3 C78.4,40 78.3,39.6 78.3,39.1 C78.3,38.7 78.5,38.4 78.7,38.1 C79,37.8 79.5,37.6 79.9,37.6 L80,37.6 C80.5,37.6 81,37.3 81.2,36.8 C81.4,36.3 81.3,35.7 80.9,35.4 C80.6,35.1 80.3,35 80,35 L70.4,35 C70,35 69.6,34.8 69.3,34.5 C69.1,33.8 69,33.4 69,33 C69,32.2 69.8,31.5 70.7,31.5 L74.4,31.5 C74.9,31.5 75.4,31.2 75.6,30.7 C75.8,30.2 75.7,29.6 75.3,29.3 L75,28.9 C74.7,28.6 74.4,28.5 74.1,28.5 L68.8,28.5 C68.4,28.5 68,28.3 67.7,28 C67.4,27.7 67.3,27.3 67.3,26.8 C67.3,26 68.1,25.3 69,25.3 L70.5,25.3 C70.7,25.3 70.9,25.2 70.9,25 C71,24.8 70.9,24.6 70.8,24.5 L68.9,22.6 C68.6,22.3 68.4,21.9 68.4,21.4 C68.4,21 68.6,20.6 69,20.3 C69.6,19.8 70.6,19.9 71.2,20.5 L73.1,22.4 C73.2,22.5 73.4,22.6 73.6,22.5 C73.8,22.4 73.9,22.3 73.9,22.1 L73.9,20.5 C73.9,20.1 74.1,19.7 74.4,19.4 C74.7,19.1 75.1,19 75.6,19 C76.4,19 77.1,19.8 77.1,20.7 L77.1,25.9 C77.1,26.3 77.2,26.6 77.5,26.8 L77.9,27.2 C78.3,27.6 78.8,27.7 79.3,27.5 C79.8,27.3 80.1,26.8 80.1,26.3 L80.1,22.4 C80.1,22 80.3,21.6 80.6,21.3 C80.9,21 81.3,20.9 81.8,20.9 C82.6,20.9 83.3,21.7 83.3,22.6 L83.3,32.1 C83.3,32.5 83.4,32.8 83.7,33 C83.7,33.2 84.3,33.3 84.8,33.1 L84.8,33.1 Z" id="Shape" fill="#F79A10"></path>
                <path d="M88.6,127.4 C97.1,127.4 105.7,127.4 114.2,127.4 C106.6,120.1 105.4,112 104.9,104.4 C103.8,88.9 111.8,79.2 120.8,68.7 C106.5,80.7 104.5,85.1 101.4,85.1 C98.3,85.1 96.2,80.6 82,68.7 C91,79.2 99.1,88.9 97.9,104.4 C97.3,112 96.1,120.1 88.6,127.4 L88.6,127.4 Z" id="Path" fill="#000000"></path>
                <g id="Group" transform="translate(0.000000, 104.000000)" fill="#000000">
                    <path d="M1.3,24.5 L0.6,22.7 C1.4,22.7 2,22.4 2.6,21.9 C3.2,21.4 3.5,20.4 3.5,19.1 L3.5,2.5 L1.4,2.4 L1.4,0.2 L6,0.2 L6,19.1 C6,22.7 4.4,24.4 1.3,24.5 Z" id="Path"></path>
                    <path d="M21.6,23.2 L19.3,23.2 L19.3,22 C18.4,23.1 17.1,23.6 15.5,23.6 C11.4,23.6 9.3,21.6 9.3,17.6 L9.3,6.8 L11.7,6.8 L11.7,17.6 C11.7,20.1 13,21.4 15.5,21.4 C18,21.4 19.2,20.1 19.2,17.6 L19.2,6.8 L21.6,6.8 L21.6,23.2 L21.6,23.2 Z" id="Path"></path>
                    <path d="M36.3,23.2 L34,23.2 L34,22 C33.1,23.1 31.8,23.6 30.2,23.6 C26.1,23.6 24,21.6 24,17.6 L24,6.8 L26.4,6.8 L26.4,17.6 C26.4,20.1 27.7,21.4 30.2,21.4 C32.7,21.4 33.9,20.1 33.9,17.6 L33.9,6.8 L36.3,6.8 L36.3,23.2 Z" id="Path"></path>
                    <path d="M42.4,7.4 C43.4,6.8 44.6,6.5 45.9,6.5 C47.2,6.5 48.4,6.7 49.3,7.1 C51.2,8 52.1,9.5 52.1,11.8 L52.1,18 C52.1,20.2 51.2,21.7 49.5,22.6 C48.2,23.3 46.8,23.6 45.2,23.6 C43.6,23.6 41.9,23.5 40,23.2 L40,0.2 L42.4,0.2 L42.4,7.4 L42.4,7.4 Z M49.9,18.1 L49.9,12.2 C49.9,11.1 49.6,10.3 49,9.7 C48.4,9 47.4,8.7 46.2,8.7 L44.6,8.9 C43.8,9.1 43.1,9.3 42.5,9.7 L42.5,21.2 C43.6,21.4 44.4,21.4 45,21.4 C45.6,21.4 45.9,21.4 45.9,21.4 C47,21.4 47.9,21.1 48.7,20.5 C49.5,20 49.9,19.2 49.9,18.1 Z" id="Shape"></path>
                    <path d="M57.5,18.7 C57.5,20.6 58.6,21.5 60.8,21.5 C62.2,21.5 63.6,21.1 65.3,20.2 L66.2,22.1 C64.5,23.1 62.8,23.6 60.9,23.6 C57.1,23.6 55.2,22 55.2,18.8 L55.2,12.1 C55.2,10.3 55.8,8.9 56.9,8 C58,7 59.5,6.5 61.3,6.5 C63.1,6.5 64.5,7 65.6,8 C66.7,9 67.1,10.3 67.1,12.1 L67.1,16.6 L57.6,17.1 L57.6,18.7 L57.5,18.7 Z M64.6,14.4 L64.6,11.9 C64.6,10.7 64.2,9.9 63.5,9.4 C62.8,8.9 61.9,8.7 61,8.7 C60,8.7 59.2,9 58.6,9.6 C57.9,10.2 57.6,11.1 57.6,12.2 L57.6,14.8 L64.6,14.4 Z" id="Shape"></path>
                    <polygon id="Path" points="73.2 23.2 70.8 23.2 70.8 0.2 73.2 0.2"></polygon>
                    <path d="M81.1,1.3 C81.1,1.7 81,2 80.7,2.3 C80.4,2.6 80.1,2.7 79.8,2.7 C79.5,2.7 79.1,2.6 78.8,2.3 C78.5,2 78.4,1.7 78.4,1.4 C78.4,1.1 78.5,0.7 78.8,0.5 C79.1,0.2 79.4,0.1 79.8,0.1 C80.2,0.1 80.5,0.2 80.7,0.5 C80.9,0.8 81.1,0.9 81.1,1.3 Z M80.9,23.2 L78.5,23.2 L78.5,6.7 L80.9,6.7 L80.9,23.2 Z" id="Shape"></path>
                    <polygon id="Path" points="127.9 23.2 125.5 23.2 125.5 2.4 120.2 2.4 120.2 0.2 133.4 0.2 133.4 2.4 127.9 2.4"></polygon>
                    <path d="M131.8,15 C131.8,11.7 133.5,10.1 136.8,10.1 C137.3,10.1 137.8,10.1 138.3,10.2 C139.9,10.5 141.1,11 142.1,11.7 C142.1,9.4 140.6,8.3 137.5,8.3 L137.7,6.6 C139.5,6.6 140.8,6.8 141.6,7.2 C142.1,7.4 142.5,7.7 142.8,7.9 C143.1,8.1 143.4,8.5 143.6,8.9 C143.8,9.3 144,9.6 144.1,9.9 C144.2,10.2 144.3,10.6 144.4,11.1 C144.5,11.9 144.5,12.7 144.5,13.5 L144.5,23.3 C142.2,23.5 140.4,23.6 139,23.6 C134.2,23.6 131.8,21.6 131.8,17.7 L131.8,15 L131.8,15 Z M142.1,21.2 L142.1,13.7 C140.6,12.9 139,12.5 137.3,12.3 C137.1,12.3 137,12.3 136.8,12.3 C136.1,12.3 135.5,12.5 135,12.9 C134.5,13.3 134.2,14.1 134.2,15.1 L134.2,17.7 C134.2,20.2 135.9,21.4 139.3,21.4 C140.1,21.5 141.1,21.4 142.1,21.2 Z" id="Shape"></path>
                    <path d="M158.3,8.1 C160.2,7 161.9,6.5 163.6,6.5 C165.2,6.5 166.4,7 167.3,8 C168.2,9 168.7,10.3 168.7,11.8 L168.7,23.2 L166.3,23.2 L166.3,12.3 C166.3,10.4 165.7,9.3 164.5,8.9 C164,8.8 163.7,8.7 163.3,8.7 C162.9,8.7 162.6,8.7 162.2,8.7 C161.8,8.7 161.2,8.9 160.5,9.2 L159.5,9.7 C159.8,10.3 159.9,11 159.9,11.8 L159.9,23.3 L157.5,23.3 L157.5,12.5 C157.5,11.5 157.3,10.6 156.8,10 C156.2,9.2 155.3,8.8 154,8.8 C152.7,8.8 151.6,9.1 150.5,9.8 L150.5,23.3 L148.1,23.3 L148.1,6.8 L150.3,6.8 L150.3,7.6 C151.5,6.9 152.9,6.5 154.4,6.5 C156,6.5 157.3,7.1 158.3,8.1 Z" id="Path"></path>
                    <path d="M182.5,8.1 C184.4,7 186.1,6.5 187.8,6.5 C189.4,6.5 190.6,7 191.5,8 C192.4,9 192.9,10.3 192.9,11.8 L192.9,23.2 L190.5,23.2 L190.5,12.3 C190.5,10.4 189.9,9.3 188.7,8.9 C188.2,8.8 187.9,8.7 187.5,8.7 C187.1,8.7 186.8,8.7 186.4,8.7 C186,8.7 185.4,8.9 184.7,9.2 L183.7,9.7 C184,10.3 184.1,11 184.1,11.8 L184.1,23.3 L181.7,23.3 L181.7,12.5 C181.7,11.5 181.5,10.6 181,10 C180.4,9.2 179.5,8.8 178.2,8.8 C176.9,8.8 175.8,9.1 174.7,9.8 L174.7,23.3 L172.3,23.3 L172.3,6.8 L174.5,6.8 L174.5,7.6 C175.7,6.9 177.1,6.5 178.6,6.5 C180.3,6.5 181.5,7.1 182.5,8.1 Z" id="Path"></path>
                    <path d="M198.2,18.7 C198.2,20.6 199.3,21.5 201.5,21.5 C202.9,21.5 204.3,21.1 206,20.2 L206.9,22.1 C205.2,23.1 203.5,23.6 201.6,23.6 C197.8,23.6 195.9,22 195.9,18.8 L195.9,12.1 C195.9,10.3 196.5,8.9 197.6,8 C198.7,7 200.2,6.5 202,6.5 C203.8,6.5 205.2,7 206.3,8 C207.4,9 207.8,10.3 207.8,12.1 L207.8,16.6 L198.3,17.1 L198.3,18.7 L198.2,18.7 Z M205.3,14.4 L205.3,11.9 C205.3,10.7 204.9,9.9 204.2,9.4 C203.5,8.9 202.6,8.7 201.7,8.7 C200.7,8.7 199.9,9 199.3,9.6 C198.6,10.2 198.3,11.1 198.3,12.2 L198.3,14.8 L205.3,14.4 Z" id="Shape"></path>
                    <path d="M213,7.1 C214,6.7 215.1,6.5 216.5,6.5 C217.9,6.5 219,6.8 220,7.4 L220,0.2 L222.4,0.2 L222.4,23.2 C220.5,23.5 218.8,23.6 217.2,23.6 C215.6,23.6 214.2,23.3 212.9,22.6 C211.2,21.7 210.3,20.2 210.3,18 L210.3,11.8 C210.2,9.6 211.2,8 213,7.1 Z M220,9.7 C218.9,9.1 217.6,8.8 216.3,8.8 C215,8.8 214.1,9.1 213.5,9.8 C212.9,10.5 212.6,11.3 212.6,12.3 L212.6,18.1 C212.6,19.1 213,19.9 213.7,20.5 C214.5,21.1 215.5,21.4 216.6,21.4 C217.8,21.4 218.9,21.3 220,21.1 L220,9.7 Z" id="Shape"></path>
                    <path d="M227.2,18.7 C227.2,20.6 228.3,21.5 230.5,21.5 C231.9,21.5 233.3,21.1 235,20.2 L235.9,22.1 C234.2,23.1 232.5,23.6 230.6,23.6 C226.8,23.6 224.9,22 224.9,18.8 L224.9,12.1 C224.9,10.3 225.5,8.9 226.6,8 C227.7,7 229.2,6.5 231,6.5 C232.8,6.5 234.2,7 235.3,8 C236.4,9 236.8,10.3 236.8,12.1 L236.8,16.6 L227.3,17.1 L227.3,18.7 L227.2,18.7 Z M234.3,14.4 L234.3,11.9 C234.3,10.7 233.9,9.9 233.2,9.4 C232.5,8.9 231.6,8.7 230.7,8.7 C229.7,8.7 228.9,9 228.3,9.6 C227.6,10.2 227.3,11.1 227.3,12.2 L227.3,14.8 L234.3,14.4 Z" id="Shape"></path>
                </g>
            </g>
            <path d="M8.46456895,142.256109 L8.46456895,151.290929 L7.19969424,151.290929 L7.10934605,149.917636 C6.50702174,150.953634 5.42887742,151.471625 3.87488072,151.471625 C2.89911535,151.471625 2.10104762,151.200583 1.48065359,150.658491 C0.860259562,150.116399 0.5500672,149.285204 0.5500672,148.164881 L0.5500672,142.256109 L1.9956383,142.256109 L1.9956383,147.785419 C1.9956383,148.664812 2.17633288,149.288209 2.53772746,149.655626 C2.89912204,150.023044 3.42915947,150.20675 4.12785566,150.20675 C4.9590632,150.20675 5.64871418,149.953778 6.19682929,149.447826 C6.74494441,148.941873 7.01899785,148.182956 7.01899785,147.171051 L7.01899785,142.256109 L8.46456895,142.256109 Z M19.6496753,142.256109 L19.6496753,151.290929 L18.3848006,151.290929 L18.2944524,149.917636 C17.6921281,150.953634 16.6139838,151.471625 15.0599871,151.471625 C14.0842217,151.471625 13.286154,151.200583 12.6657599,150.658491 C12.0453659,150.116399 11.7351736,149.285204 11.7351736,148.164881 L11.7351736,142.256109 L13.1807446,142.256109 L13.1807446,147.785419 C13.1807446,148.664812 13.3614392,149.288209 13.7228338,149.655626 C14.0842284,150.023044 14.6142658,150.20675 15.312962,150.20675 C16.1441695,150.20675 16.8338205,149.953778 17.3819356,149.447826 C17.9300508,148.941873 18.2041042,148.182956 18.2041042,147.171051 L18.2041042,142.256109 L19.6496753,142.256109 Z M30.7625031,146.303708 C30.7625031,146.64101 30.7384105,146.978307 30.6902245,147.315608 L23.8779708,147.315608 C23.9622962,148.231141 24.2664654,148.941873 24.7904875,149.447826 C25.3145096,149.953778 25.9921143,150.20675 26.8233219,150.20675 C27.4858786,150.20675 28.0369971,150.09231 28.4766938,149.863427 C28.9163905,149.634544 29.2145366,149.303271 29.3711409,148.869597 L30.5818067,149.502034 C30.2204121,150.140498 29.7385599,150.628374 29.1362356,150.965675 C28.5339113,151.302977 27.7629478,151.471625 26.8233219,151.471625 C25.4620689,151.471625 24.3929593,151.056028 23.615961,150.22482 C22.8389626,149.393612 22.4504693,148.24319 22.4504693,146.773519 C22.4504693,145.303848 22.8208932,144.153426 23.5617521,143.322218 C24.302611,142.491011 25.3536511,142.075413 26.714904,142.075413 C27.558158,142.075413 28.2869595,142.262131 28.9013303,142.635572 C29.5157011,143.009013 29.9794839,143.514958 30.2926925,144.153421 C30.6059011,144.791885 30.7625031,145.50864 30.7625031,146.303708 Z M26.714904,143.340288 C25.9198359,143.340288 25.2783702,143.575191 24.7904875,144.045004 C24.3026048,144.514817 24.0044588,145.177363 23.8960404,146.032664 L29.3711409,146.032664 C29.274769,145.18941 28.997704,144.529875 28.5399375,144.054038 C28.0821711,143.578202 27.4738326,143.340288 26.714904,143.340288 Z M41.5320078,138.100092 L41.5320078,151.290929 L40.267133,151.290929 L40.1767849,149.71887 C39.9117622,150.248916 39.5051994,150.673548 38.9570842,150.99278 C38.4089691,151.312012 37.7855728,151.471625 37.0868766,151.471625 C35.8219956,151.471625 34.8191407,151.053016 34.0782818,150.215785 C33.3374229,149.378554 32.966999,148.231144 32.966999,146.773519 C32.966999,145.315894 33.3374229,144.168484 34.0782818,143.331253 C34.8191407,142.494022 35.8219956,142.075413 37.0868766,142.075413 C37.7494334,142.075413 38.3427139,142.219969 38.866736,142.509084 C39.3907582,142.7982 39.797321,143.183682 40.0864367,143.665541 L40.0864367,138.100092 L41.5320078,138.100092 Z M37.2495034,150.20675 C38.1168504,150.20675 38.8065014,149.905593 39.318477,149.303268 C39.8304527,148.700944 40.0864367,147.893842 40.0864367,146.881937 L40.0864367,146.665101 C40.0864367,145.653196 39.8304527,144.846094 39.318477,144.24377 C38.8065014,143.641445 38.1168504,143.340288 37.2495034,143.340288 C36.3701099,143.340288 35.6774473,143.65048 35.1714949,144.270874 C34.6655425,144.891268 34.4125701,145.725475 34.4125701,146.773519 C34.4125701,147.821563 34.6655425,148.65577 35.1714949,149.276164 C35.6774473,149.896558 36.3701099,150.20675 37.2495034,150.20675 Z M54.4156601,146.827728 L52.5002784,148.74311 L52.5002784,151.290929 L51.0547073,151.290929 L51.0547073,138.100092 L52.5002784,138.100092 L52.5002784,146.936146 L57.1803149,142.256109 L58.9872787,142.256109 L55.4636992,145.779689 L59.2041144,151.290929 L57.4513594,151.290929 L54.4156601,146.827728 Z M64.4605723,142.075413 C65.8218252,142.075413 66.8909348,142.491011 67.6679332,143.322218 C68.4449315,144.153426 68.8334249,145.303848 68.8334249,146.773519 C68.8334249,148.24319 68.4449315,149.393612 67.6679332,150.22482 C66.8909348,151.056028 65.8218252,151.471625 64.4605723,151.471625 C63.0993194,151.471625 62.0302098,151.056028 61.2532114,150.22482 C60.4762131,149.393612 60.0877197,148.24319 60.0877197,146.773519 C60.0877197,145.303848 60.4762131,144.153426 61.2532114,143.322218 C62.0302098,142.491011 63.0993194,142.075413 64.4605723,142.075413 Z M64.4605723,143.322218 C63.5450394,143.322218 62.8282842,143.629399 62.3102853,144.24377 C61.7922864,144.85814 61.5332908,145.701382 61.5332908,146.773519 C61.5332908,147.845656 61.7922864,148.688898 62.3102853,149.303268 C62.8282842,149.917639 63.5450394,150.22482 64.4605723,150.22482 C65.3761052,150.22482 66.0928604,149.917639 66.6108593,149.303268 C67.1288582,148.688898 67.3878538,147.845656 67.3878538,146.773519 C67.3878538,145.701382 67.1288582,144.85814 66.6108593,144.24377 C66.0928604,143.629399 65.3761052,143.322218 64.4605723,143.322218 Z M79.6571384,138.100092 L79.6571384,151.290929 L78.3922637,151.290929 L78.3019155,149.71887 C78.0368928,150.248916 77.63033,150.673548 77.0822149,150.99278 C76.5340998,151.312012 75.9107035,151.471625 75.2120073,151.471625 C73.9471263,151.471625 72.9442714,151.053016 72.2034125,150.215785 C71.4625536,149.378554 71.0921297,148.231144 71.0921297,146.773519 C71.0921297,145.315894 71.4625536,144.168484 72.2034125,143.331253 C72.9442714,142.494022 73.9471263,142.075413 75.2120073,142.075413 C75.874564,142.075413 76.4678446,142.219969 76.9918667,142.509084 C77.5158889,142.7982 77.9224517,143.183682 78.2115673,143.665541 L78.2115673,138.100092 L79.6571384,138.100092 Z M75.3746341,150.20675 C76.2419811,150.20675 76.931632,149.905593 77.4436077,149.303268 C77.9555833,148.700944 78.2115673,147.893842 78.2115673,146.881937 L78.2115673,146.665101 C78.2115673,145.653196 77.9555833,144.846094 77.4436077,144.24377 C76.931632,143.641445 76.2419811,143.340288 75.3746341,143.340288 C74.4952406,143.340288 73.802578,143.65048 73.2966256,144.270874 C72.7906732,144.891268 72.5377008,145.725475 72.5377008,146.773519 C72.5377008,147.821563 72.7906732,148.65577 73.2966256,149.276164 C73.802578,149.896558 74.4952406,150.20675 75.3746341,150.20675 Z M90.8422448,142.256109 L90.8422448,151.290929 L89.5773701,151.290929 L89.4870219,149.917636 C88.8846976,150.953634 87.8065533,151.471625 86.2525566,151.471625 C85.2767912,151.471625 84.4787235,151.200583 83.8583294,150.658491 C83.2379354,150.116399 82.927743,149.285204 82.927743,148.164881 L82.927743,142.256109 L84.3733141,142.256109 L84.3733141,147.785419 C84.3733141,148.664812 84.5540087,149.288209 84.9154033,149.655626 C85.2767979,150.023044 85.8068353,150.20675 86.5055315,150.20675 C87.336739,150.20675 88.02639,149.953778 88.5745051,149.447826 C89.1226202,148.941873 89.3966737,148.182956 89.3966737,147.171051 L89.3966737,142.256109 L90.8422448,142.256109 Z M102.226117,138.100092 L102.226117,151.290929 L100.961242,151.290929 L100.870894,149.71887 C100.605872,150.248916 100.199309,150.673548 99.6511936,150.99278 C99.1030785,151.312012 98.4796822,151.471625 97.780986,151.471625 C96.516105,151.471625 95.5132501,151.053016 94.7723912,150.215785 C94.0315323,149.378554 93.6611084,148.231144 93.6611084,146.773519 C93.6611084,145.315894 94.0315323,144.168484 94.7723912,143.331253 C95.5132501,142.494022 96.516105,142.075413 97.780986,142.075413 C98.4435428,142.075413 99.0368233,142.219969 99.5608455,142.509084 C100.084868,142.7982 100.49143,143.183682 100.780546,143.665541 L100.780546,138.100092 L102.226117,138.100092 Z M97.9436128,150.20675 C98.8109598,150.20675 99.5006108,149.905593 100.012586,149.303268 C100.524562,148.700944 100.780546,147.893842 100.780546,146.881937 L100.780546,146.665101 C100.780546,145.653196 100.524562,144.846094 100.012586,144.24377 C99.5006108,143.641445 98.8109598,143.340288 97.9436128,143.340288 C97.0642193,143.340288 96.3715568,143.65048 95.8656043,144.270874 C95.3596519,144.891268 95.1066795,145.725475 95.1066795,146.773519 C95.1066795,147.821563 95.3596519,148.65577 95.8656043,149.276164 C96.3715568,149.896558 97.0642193,150.20675 97.9436128,150.20675 Z M115.850625,139.184271 C117.982853,139.184271 119.518757,140.027512 120.458383,141.71402 L119.211578,142.72592 C118.850183,141.930852 118.419528,141.367687 117.919598,141.036409 C117.419669,140.70513 116.736041,140.539494 115.868694,140.539494 C114.953161,140.539494 114.233395,140.729223 113.709373,141.108687 C113.18535,141.488152 112.923343,141.973015 112.923343,142.563293 C112.923343,142.948781 113.025737,143.268008 113.230527,143.520984 C113.435317,143.77396 113.775626,143.993805 114.251462,144.180526 C114.727298,144.367246 115.386833,144.532883 116.230087,144.677441 C117.808177,144.942464 118.925472,145.339992 119.582005,145.870037 C120.238539,146.400082 120.5668,147.134907 120.5668,148.074533 C120.5668,148.749136 120.377071,149.342417 119.997607,149.854392 C119.618143,150.366368 119.07907,150.763896 118.380374,151.046989 C117.681678,151.330081 116.874576,151.471625 115.959043,151.471625 C114.754394,151.471625 113.727446,151.236722 112.878169,150.766909 C112.028892,150.297096 111.381403,149.670688 110.935683,148.887667 L112.182488,147.875767 C112.507743,148.58651 112.986584,149.137628 113.619024,149.529139 C114.251465,149.92065 115.043509,150.116402 115.995182,150.116402 C116.934808,150.116402 117.681679,149.944742 118.235817,149.601417 C118.789955,149.258093 119.06702,148.773229 119.06702,148.146812 C119.06702,147.616766 118.826094,147.195146 118.344235,146.881937 C117.862375,146.568728 117.007088,146.30371 115.778346,146.086873 C114.18821,145.809804 113.06188,145.412276 112.399324,144.894277 C111.736767,144.376278 111.405494,143.653499 111.405494,142.72592 C111.405494,142.087456 111.586188,141.497187 111.947583,140.955095 C112.308977,140.413004 112.826968,139.982348 113.501572,139.663116 C114.176175,139.343884 114.959185,139.184271 115.850625,139.184271 Z M130.378614,150.24289 C130.619544,150.24289 130.86047,150.212774 131.1014,150.152541 L131.011052,151.290929 C130.67375,151.411394 130.312361,151.471625 129.926873,151.471625 C129.45706,151.471625 129.086636,151.369232 128.81559,151.164441 C128.544545,150.959651 128.372885,150.616331 128.300606,150.134472 C128.023537,150.556099 127.616974,150.884361 127.080905,151.119267 C126.544837,151.354174 125.981672,151.471625 125.391394,151.471625 C124.499954,151.471625 123.765129,151.263826 123.186898,150.848223 C122.608667,150.432619 122.319555,149.833315 122.319555,149.050294 C122.319555,148.363644 122.620713,147.770363 123.223037,147.270434 C123.825362,146.770505 124.698719,146.424174 125.843135,146.23143 L128.246397,145.833898 L128.246397,145.327948 C128.246397,144.725624 128.059679,144.243771 127.686238,143.882377 C127.312797,143.520982 126.794806,143.340288 126.132249,143.340288 C125.529925,143.340288 125.008922,143.484843 124.569225,143.773959 C124.129529,144.063075 123.789221,144.490719 123.548291,145.056903 L122.482182,144.279909 C122.723112,143.605306 123.171837,143.069245 123.82837,142.671711 C124.484904,142.274177 125.252856,142.075413 126.132249,142.075413 C127.204386,142.075413 128.065697,142.334409 128.716207,142.852407 C129.366718,143.370406 129.691968,144.135347 129.691968,145.147252 L129.691968,149.592383 C129.691968,149.809219 129.746176,149.971845 129.854595,150.080263 C129.963013,150.188681 130.137685,150.24289 130.378614,150.24289 Z M125.463673,150.20675 C126.222601,150.20675 126.876113,150.026056 127.424228,149.664661 C127.972343,149.303267 128.246397,148.833461 128.246397,148.255229 L128.246397,147.008424 L126.222597,147.387887 C125.415483,147.532445 124.813168,147.740243 124.415633,148.011289 C124.018099,148.282335 123.819335,148.628667 123.819335,149.050294 C123.819335,149.423735 123.963891,149.709834 124.253007,149.908601 C124.542122,150.107368 124.945674,150.20675 125.463673,150.20675 Z M136.558431,146.827728 L134.643049,148.74311 L134.643049,151.290929 L133.197478,151.290929 L133.197478,138.100092 L134.643049,138.100092 L134.643049,146.936146 L139.323085,142.256109 L141.130049,142.256109 L137.60647,145.779689 L141.346885,151.290929 L139.59413,151.290929 L136.558431,146.827728 Z M151.267117,142.256109 L151.267117,151.290929 L150.002242,151.290929 L149.911894,149.917636 C149.309569,150.953634 148.231425,151.471625 146.677428,151.471625 C145.701663,151.471625 144.903595,151.200583 144.283201,150.658491 C143.662807,150.116399 143.352615,149.285204 143.352615,148.164881 L143.352615,142.256109 L144.798186,142.256109 L144.798186,147.785419 C144.798186,148.664812 144.97888,149.288209 145.340275,149.655626 C145.70167,150.023044 146.231707,150.20675 146.930403,150.20675 C147.761611,150.20675 148.451262,149.953778 148.999377,149.447826 C149.547492,148.941873 149.821545,148.182956 149.821545,147.171051 L149.821545,142.256109 L151.267117,142.256109 Z M164.150769,146.827728 L162.235387,148.74311 L162.235387,151.290929 L160.789816,151.290929 L160.789816,138.100092 L162.235387,138.100092 L162.235387,146.936146 L166.915424,142.256109 L168.722388,142.256109 L165.198808,145.779689 L168.939223,151.290929 L167.186468,151.290929 L164.150769,146.827728 Z M178.136669,146.303708 C178.136669,146.64101 178.112577,146.978307 178.064391,147.315608 L171.252137,147.315608 C171.336462,148.231141 171.640632,148.941873 172.164654,149.447826 C172.688676,149.953778 173.366281,150.20675 174.197488,150.20675 C174.860045,150.20675 175.411163,150.09231 175.85086,149.863427 C176.290557,149.634544 176.588703,149.303271 176.745307,148.869597 L177.955973,149.502034 C177.594578,150.140498 177.112726,150.628374 176.510402,150.965675 C175.908078,151.302977 175.137114,151.471625 174.197488,151.471625 C172.836235,151.471625 171.767126,151.056028 170.990127,150.22482 C170.213129,149.393612 169.824636,148.24319 169.824636,146.773519 C169.824636,145.303848 170.195059,144.153426 170.935918,143.322218 C171.676777,142.491011 172.727817,142.075413 174.08907,142.075413 C174.932324,142.075413 175.661126,142.262131 176.275497,142.635572 C176.889867,143.009013 177.35365,143.514958 177.666859,144.153421 C177.980067,144.791885 178.136669,145.50864 178.136669,146.303708 Z M174.08907,143.340288 C173.294002,143.340288 172.652536,143.575191 172.164654,144.045004 C171.676771,144.514817 171.378625,145.177363 171.270207,146.032664 L176.745307,146.032664 C176.648935,145.18941 176.37187,144.529875 175.914104,144.054038 C175.456337,143.578202 174.847999,143.340288 174.08907,143.340288 Z M183.955093,151.471625 C183.087746,151.471625 182.304736,151.299965 181.60604,150.95664 C180.907344,150.613316 180.395376,150.104359 180.070121,149.429756 L181.244647,148.616622 C181.449437,149.146668 181.804803,149.544196 182.310756,149.809218 C182.816708,150.074241 183.413,150.20675 184.09965,150.20675 C184.810393,150.20675 185.352476,150.080264 185.725918,149.827288 C186.099359,149.574312 186.286076,149.255085 186.286076,148.869597 C186.286076,148.520249 186.111405,148.240172 185.762057,148.029359 C185.412709,147.818545 184.798347,147.634839 183.918954,147.478235 C183.051607,147.321631 182.364967,147.131901 181.859015,146.909041 C181.353062,146.686181 180.98565,146.403093 180.756767,146.059768 C180.527884,145.716443 180.413444,145.291811 180.413444,144.785859 C180.413444,144.291953 180.557999,143.840216 180.847115,143.430636 C181.136231,143.021055 181.551828,142.692794 182.09392,142.445841 C182.636012,142.198888 183.26242,142.075413 183.973163,142.075413 C184.936881,142.075413 185.710857,142.253096 186.295111,142.608467 C186.879366,142.963839 187.297975,143.508934 187.550951,144.24377 L186.322216,144.966555 C186.129472,144.388324 185.837349,143.972726 185.445838,143.71975 C185.054327,143.466774 184.56344,143.340288 183.973163,143.340288 C183.382885,143.340288 182.882963,143.472797 182.473383,143.73782 C182.063802,144.002842 181.859015,144.310023 181.859015,144.659371 C181.859015,145.056905 182.036698,145.364086 182.392069,145.580923 C182.747441,145.79776 183.382883,145.984477 184.298416,146.141082 C185.551251,146.345872 186.436654,146.653053 186.954653,147.062633 C187.472652,147.472214 187.731647,148.050436 187.731647,148.797319 C187.731647,149.315317 187.578057,149.776089 187.270872,150.179646 C186.963686,150.583203 186.523996,150.899419 185.951788,151.128302 C185.37958,151.357185 184.714022,151.471625 183.955093,151.471625 Z M193.766907,146.827728 L191.851525,148.74311 L191.851525,151.290929 L190.405954,151.290929 L190.405954,138.100092 L191.851525,138.100092 L191.851525,146.936146 L196.531561,142.256109 L198.338525,142.256109 L194.814946,145.779689 L198.555361,151.290929 L196.802606,151.290929 L193.766907,146.827728 Z M208.475593,142.256109 L208.475593,151.290929 L207.210718,151.290929 L207.12037,149.917636 C206.518045,150.953634 205.439901,151.471625 203.885904,151.471625 C202.910139,151.471625 202.112071,151.200583 201.491677,150.658491 C200.871283,150.116399 200.561091,149.285204 200.561091,148.164881 L200.561091,142.256109 L202.006662,142.256109 L202.006662,147.785419 C202.006662,148.664812 202.187357,149.288209 202.548751,149.655626 C202.910146,150.023044 203.440183,150.20675 204.138879,150.20675 C204.970087,150.20675 205.659738,149.953778 206.207853,149.447826 C206.755968,148.941873 207.030022,148.182956 207.030022,147.171051 L207.030022,142.256109 L208.475593,142.256109 Z M214.908384,151.471625 C214.041037,151.471625 213.258027,151.299965 212.559331,150.95664 C211.860635,150.613316 211.348667,150.104359 211.023412,149.429756 L212.197938,148.616622 C212.402729,149.146668 212.758095,149.544196 213.264047,149.809218 C213.769999,150.074241 214.366291,150.20675 215.052941,150.20675 C215.763684,150.20675 216.305768,150.080264 216.679209,149.827288 C217.05265,149.574312 217.239367,149.255085 217.239367,148.869597 C217.239367,148.520249 217.064696,148.240172 216.715348,148.029359 C216.366,147.818545 215.751638,147.634839 214.872245,147.478235 C214.004898,147.321631 213.318258,147.131901 212.812306,146.909041 C212.306354,146.686181 211.938941,146.403093 211.710058,146.059768 C211.481175,145.716443 211.366735,145.291811 211.366735,144.785859 C211.366735,144.291953 211.511291,143.840216 211.800406,143.430636 C212.089522,143.021055 212.505119,142.692794 213.047211,142.445841 C213.589303,142.198888 214.215711,142.075413 214.926454,142.075413 C215.890173,142.075413 216.664148,142.253096 217.248402,142.608467 C217.832657,142.963839 218.251266,143.508934 218.504242,144.24377 L217.275507,144.966555 C217.082763,144.388324 216.79064,143.972726 216.399129,143.71975 C216.007618,143.466774 215.516731,143.340288 214.926454,143.340288 C214.336176,143.340288 213.836254,143.472797 213.426674,143.73782 C213.017093,144.002842 212.812306,144.310023 212.812306,144.659371 C212.812306,145.056905 212.989989,145.364086 213.34536,145.580923 C213.700732,145.79776 214.336174,145.984477 215.251707,146.141082 C216.504542,146.345872 217.389945,146.653053 217.907944,147.062633 C218.425943,147.472214 218.684939,148.050436 218.684939,148.797319 C218.684939,149.315317 218.531348,149.776089 218.224163,150.179646 C217.916977,150.583203 217.477287,150.899419 216.905079,151.128302 C216.332871,151.357185 215.667313,151.471625 214.908384,151.471625 Z M229.11112,146.303708 C229.11112,146.64101 229.087027,146.978307 229.038841,147.315608 L222.226588,147.315608 C222.310913,148.231141 222.615082,148.941873 223.139104,149.447826 C223.663127,149.953778 224.340731,150.20675 225.171939,150.20675 C225.834496,150.20675 226.385614,150.09231 226.825311,149.863427 C227.265007,149.634544 227.563154,149.303271 227.719758,148.869597 L228.930424,149.502034 C228.569029,150.140498 228.087177,150.628374 227.484853,150.965675 C226.882528,151.302977 226.111565,151.471625 225.171939,151.471625 C223.810686,151.471625 222.741576,151.056028 221.964578,150.22482 C221.18758,149.393612 220.799086,148.24319 220.799086,146.773519 C220.799086,145.303848 221.16951,144.153426 221.910369,143.322218 C222.651228,142.491011 223.702268,142.075413 225.063521,142.075413 C225.906775,142.075413 226.635576,142.262131 227.249947,142.635572 C227.864318,143.009013 228.328101,143.514958 228.641309,144.153421 C228.954518,144.791885 229.11112,145.50864 229.11112,146.303708 Z M225.063521,143.340288 C224.268453,143.340288 223.626987,143.575191 223.139104,144.045004 C222.651222,144.514817 222.353076,145.177363 222.244657,146.032664 L227.719758,146.032664 C227.623386,145.18941 227.346321,144.529875 226.888554,144.054038 C226.430788,143.578202 225.82245,143.340288 225.063521,143.340288 Z M234.929544,151.471625 C234.062197,151.471625 233.279187,151.299965 232.580491,150.95664 C231.881794,150.613316 231.369827,150.104359 231.044571,149.429756 L232.219098,148.616622 C232.423888,149.146668 232.779254,149.544196 233.285207,149.809218 C233.791159,150.074241 234.387451,150.20675 235.074101,150.20675 C235.784843,150.20675 236.326927,150.080264 236.700368,149.827288 C237.073809,149.574312 237.260527,149.255085 237.260527,148.869597 C237.260527,148.520249 237.085856,148.240172 236.736508,148.029359 C236.387159,147.818545 235.772798,147.634839 234.893404,147.478235 C234.026057,147.321631 233.339418,147.131901 232.833466,146.909041 C232.327513,146.686181 231.960101,146.403093 231.731218,146.059768 C231.502334,145.716443 231.387895,145.291811 231.387895,144.785859 C231.387895,144.291953 231.53245,143.840216 231.821566,143.430636 C232.110682,143.021055 232.526279,142.692794 233.068371,142.445841 C233.610463,142.198888 234.236871,142.075413 234.947613,142.075413 C235.911332,142.075413 236.685307,142.253096 237.269562,142.608467 C237.853816,142.963839 238.272426,143.508934 238.525402,144.24377 L237.296666,144.966555 C237.103923,144.388324 236.8118,143.972726 236.420289,143.71975 C236.028778,143.466774 235.537891,143.340288 234.947613,143.340288 C234.357336,143.340288 233.857414,143.472797 233.447833,143.73782 C233.038253,144.002842 232.833466,144.310023 232.833466,144.659371 C232.833466,145.056905 233.011149,145.364086 233.36652,145.580923 C233.721891,145.79776 234.357334,145.984477 235.272867,146.141082 C236.525701,146.345872 237.411105,146.653053 237.929104,147.062633 C238.447103,147.472214 238.706098,148.050436 238.706098,148.797319 C238.706098,149.315317 238.552508,149.776089 238.245322,150.179646 C237.938137,150.583203 237.498447,150.899419 236.926239,151.128302 C236.354031,151.357185 235.688472,151.471625 234.929544,151.471625 Z" id="uuedkodudSakukeskuses" fill="#5C6362"></path>
        </g>
    </g>
</svg>